solid OpenSCAD_Model
  facet normal 0 0 -1
    outer loop
      vertex -5 0 0
      vertex -4.89074 1.03956 0
      vertex -4.89074 -1.03956 0
    endloop
  endfacet
  facet normal 0 0 -1
    outer loop
      vertex -4.89074 -1.03956 0
      vertex -4.89074 1.03956 0
      vertex -4.56773 2.03368 0
    endloop
  endfacet
  facet normal 0 0 -1
    outer loop
      vertex -4.89074 -1.03956 0
      vertex -4.56773 2.03368 0
      vertex -4.04508 2.93893 0
    endloop
  endfacet
  facet normal 0 0 -1
    outer loop
      vertex -4.89074 -1.03956 0
      vertex -4.04508 2.93893 0
      vertex -3.34565 3.71572 0
    endloop
  endfacet
  facet normal 0 0 -1
    outer loop
      vertex -4.89074 -1.03956 0
      vertex -3.34565 3.71572 0
      vertex -2.5 4.33013 0
    endloop
  endfacet
  facet normal 0 0 -1
    outer loop
      vertex -4.89074 -1.03956 0
      vertex -2.5 4.33013 0
      vertex -1.54508 4.75528 0
    endloop
  endfacet
  facet normal 0 0 -1
    outer loop
      vertex -4.89074 -1.03956 0
      vertex -1.54508 4.75528 0
      vertex -0.522642 4.97261 0
    endloop
  endfacet
  facet normal 0 0 -1
    outer loop
      vertex -4.89074 -1.03956 0
      vertex -0.522642 4.97261 0
      vertex 0.522642 4.97261 0
    endloop
  endfacet
  facet normal 0 0 -1
    outer loop
      vertex 2.0098 0.894821 0
      vertex 0.522642 4.97261 0
      vertex 25.2613 2.4863 0
    endloop
  endfacet
  facet normal 0 0 -1
    outer loop
      vertex 2.15192 -0.457406 0
      vertex 27.5 0 0
      vertex 2.0098 -0.894821 0
    endloop
  endfacet
  facet normal 0 0 -1
    outer loop
      vertex 2.15192 -0.457406 0
      vertex 27.4454 0.519779 0
      vertex 27.5 0 0
    endloop
  endfacet
  facet normal 0 0 -1
    outer loop
      vertex 2.15192 -0.457406 0
      vertex 27.2839 1.01684 0
      vertex 27.4454 0.519779 0
    endloop
  endfacet
  facet normal 0 0 -1
    outer loop
      vertex 2.15192 -0.457406 0
      vertex 26.6728 1.85786 0
      vertex 27.0225 1.46946 0
    endloop
  endfacet
  facet normal 0 0 -1
    outer loop
      vertex 2.2 0 0
      vertex 26.6728 1.85786 0
      vertex 2.15192 -0.457406 0
    endloop
  endfacet
  facet normal 0 0 -1
    outer loop
      vertex 2.2 0 0
      vertex 26.25 2.16506 0
      vertex 26.6728 1.85786 0
    endloop
  endfacet
  facet normal 0 0 -1
    outer loop
      vertex 2.0098 -0.894821 0
      vertex 27.5 0 0
      vertex 27.4454 -0.519779 0
    endloop
  endfacet
  facet normal 0 0 -1
    outer loop
      vertex 1.77984 -1.29313 0
      vertex 26.25 -2.16506 0
      vertex 25.7725 -2.37764 0
    endloop
  endfacet
  facet normal 0 0 -1
    outer loop
      vertex -0.229963 -2.18795 0
      vertex 25.2613 -2.4863 0
      vertex 0.522642 -4.97261 0
    endloop
  endfacet
  facet normal 0 0 -1
    outer loop
      vertex -4.89074 -1.03956 0
      vertex 0.522642 -4.97261 0
      vertex -0.522642 -4.97261 0
    endloop
  endfacet
  facet normal 0 0 -1
    outer loop
      vertex -4.89074 -1.03956 0
      vertex -0.522642 -4.97261 0
      vertex -1.54508 -4.75528 0
    endloop
  endfacet
  facet normal 0 0 -1
    outer loop
      vertex -4.89074 -1.03956 0
      vertex -1.54508 -4.75528 0
      vertex -2.5 -4.33013 0
    endloop
  endfacet
  facet normal 0 0 -1
    outer loop
      vertex -4.89074 -1.03956 0
      vertex -2.5 -4.33013 0
      vertex -3.34565 -3.71572 0
    endloop
  endfacet
  facet normal 0 0 -1
    outer loop
      vertex -4.89074 -1.03956 0
      vertex -3.34565 -3.71572 0
      vertex -4.04508 -2.93893 0
    endloop
  endfacet
  facet normal 0 0 -1
    outer loop
      vertex -4.89074 -1.03956 0
      vertex -4.04508 -2.93893 0
      vertex -4.56773 -2.03368 0
    endloop
  endfacet
  facet normal 0 0 -1
    outer loop
      vertex -4.89074 -1.03956 0
      vertex -2.2 0 0
      vertex -2.15192 -0.457406 0
    endloop
  endfacet
  facet normal 0 0 -1
    outer loop
      vertex -1.77984 -1.29313 0
      vertex -4.89074 -1.03956 0
      vertex -2.0098 -0.894821 0
    endloop
  endfacet
  facet normal 0 0 -1
    outer loop
      vertex 0.679837 -2.09232 0
      vertex 25.2613 -2.4863 0
      vertex 0.229963 -2.18795 0
    endloop
  endfacet
  facet normal 0 0 -1
    outer loop
      vertex -4.89074 -1.03956 0
      vertex -1.77984 -1.29313 0
      vertex 0.522642 -4.97261 0
    endloop
  endfacet
  facet normal 0 0 -1
    outer loop
      vertex 1.77984 -1.29313 0
      vertex 25.2613 -2.4863 0
      vertex 1.47209 -1.63492 0
    endloop
  endfacet
  facet normal 0 0 -1
    outer loop
      vertex -1.77984 -1.29313 0
      vertex -1.47209 -1.63492 0
      vertex 0.522642 -4.97261 0
    endloop
  endfacet
  facet normal 0 0 -1
    outer loop
      vertex 1.47209 -1.63492 0
      vertex 25.2613 -2.4863 0
      vertex 1.1 -1.90526 0
    endloop
  endfacet
  facet normal 0 0 -1
    outer loop
      vertex -1.47209 -1.63492 0
      vertex -1.1 -1.90526 0
      vertex 0.522642 -4.97261 0
    endloop
  endfacet
  facet normal 0 0 -1
    outer loop
      vertex 1.1 -1.90526 0
      vertex 25.2613 -2.4863 0
      vertex 0.679837 -2.09232 0
    endloop
  endfacet
  facet normal 0 0 -1
    outer loop
      vertex -1.1 -1.90526 0
      vertex -0.679837 -2.09232 0
      vertex 0.522642 -4.97261 0
    endloop
  endfacet
  facet normal 0 0 -1
    outer loop
      vertex 0.229963 -2.18795 0
      vertex 25.2613 -2.4863 0
      vertex -0.229963 -2.18795 0
    endloop
  endfacet
  facet normal 0 0 -1
    outer loop
      vertex -0.679837 -2.09232 0
      vertex -0.229963 -2.18795 0
      vertex 0.522642 -4.97261 0
    endloop
  endfacet
  facet normal 0 0 -1
    outer loop
      vertex 2.0098 -0.894821 0
      vertex 27.0225 -1.46946 0
      vertex 26.6728 -1.85786 0
    endloop
  endfacet
  facet normal 0 0 -1
    outer loop
      vertex 2.0098 -0.894821 0
      vertex 26.25 -2.16506 0
      vertex 1.77984 -1.29313 0
    endloop
  endfacet
  facet normal 0 0 -1
    outer loop
      vertex 2.0098 -0.894821 0
      vertex 26.6728 -1.85786 0
      vertex 26.25 -2.16506 0
    endloop
  endfacet
  facet normal 0 0 -1
    outer loop
      vertex 2.0098 -0.894821 0
      vertex 27.4454 -0.519779 0
      vertex 27.2839 -1.01684 0
    endloop
  endfacet
  facet normal 0 0 -1
    outer loop
      vertex -1.47209 1.63492 0
      vertex 0.522642 4.97261 0
      vertex -1.1 1.90526 0
    endloop
  endfacet
  facet normal 0 0 -1
    outer loop
      vertex 1.77984 1.29313 0
      vertex 0.522642 4.97261 0
      vertex 2.0098 0.894821 0
    endloop
  endfacet
  facet normal 0 0 -1
    outer loop
      vertex 2.15192 0.457406 0
      vertex 2.0098 0.894821 0
      vertex 25.2613 2.4863 0
    endloop
  endfacet
  facet normal 0 0 -1
    outer loop
      vertex 1.47209 1.63492 0
      vertex 0.522642 4.97261 0
      vertex 1.77984 1.29313 0
    endloop
  endfacet
  facet normal 0 0 -1
    outer loop
      vertex 1.1 1.90526 0
      vertex 0.522642 4.97261 0
      vertex 1.47209 1.63492 0
    endloop
  endfacet
  facet normal 0 0 -1
    outer loop
      vertex 0.679837 2.09232 0
      vertex 0.522642 4.97261 0
      vertex 1.1 1.90526 0
    endloop
  endfacet
  facet normal 0 0 -1
    outer loop
      vertex 0.229963 2.18795 0
      vertex 0.522642 4.97261 0
      vertex 0.679837 2.09232 0
    endloop
  endfacet
  facet normal 0 0 -1
    outer loop
      vertex -0.229963 2.18795 0
      vertex 0.522642 4.97261 0
      vertex 0.229963 2.18795 0
    endloop
  endfacet
  facet normal 0 0 -1
    outer loop
      vertex -0.679837 2.09232 0
      vertex 0.522642 4.97261 0
      vertex -0.229963 2.18795 0
    endloop
  endfacet
  facet normal 0 0 -1
    outer loop
      vertex -1.1 1.90526 0
      vertex 0.522642 4.97261 0
      vertex -0.679837 2.09232 0
    endloop
  endfacet
  facet normal 0 0 -1
    outer loop
      vertex -4.89074 -1.03956 0
      vertex 0.522642 4.97261 0
      vertex -1.47209 1.63492 0
    endloop
  endfacet
  facet normal 0 0 -1
    outer loop
      vertex -4.89074 -1.03956 0
      vertex -1.47209 1.63492 0
      vertex -1.77984 1.29313 0
    endloop
  endfacet
  facet normal 0 0 -1
    outer loop
      vertex -4.89074 -1.03956 0
      vertex -1.77984 1.29313 0
      vertex -2.0098 0.894821 0
    endloop
  endfacet
  facet normal 0 0 -1
    outer loop
      vertex -4.89074 -1.03956 0
      vertex -2.0098 0.894821 0
      vertex -2.15192 0.457406 0
    endloop
  endfacet
  facet normal 0 0 -1
    outer loop
      vertex -4.89074 -1.03956 0
      vertex -2.15192 0.457406 0
      vertex -2.2 0 0
    endloop
  endfacet
  facet normal 0 0 -1
    outer loop
      vertex -2.0098 -0.894821 0
      vertex -4.89074 -1.03956 0
      vertex -2.15192 -0.457406 0
    endloop
  endfacet
  facet normal 0 0 -1
    outer loop
      vertex 2.2 0 0
      vertex 25.2613 2.4863 0
      vertex 25.7725 2.37764 0
    endloop
  endfacet
  facet normal 0 0 -1
    outer loop
      vertex 2.15192 0.457406 0
      vertex 25.2613 2.4863 0
      vertex 2.2 0 0
    endloop
  endfacet
  facet normal 0 0 -1
    outer loop
      vertex 2.15192 -0.457406 0
      vertex 27.0225 1.46946 0
      vertex 27.2839 1.01684 0
    endloop
  endfacet
  facet normal 0 0 -1
    outer loop
      vertex 2.2 0 0
      vertex 25.7725 2.37764 0
      vertex 26.25 2.16506 0
    endloop
  endfacet
  facet normal 0 0 -1
    outer loop
      vertex 1.77984 -1.29313 0
      vertex 25.7725 -2.37764 0
      vertex 25.2613 -2.4863 0
    endloop
  endfacet
  facet normal 0 0 -1
    outer loop
      vertex 2.0098 -0.894821 0
      vertex 27.2839 -1.01684 0
      vertex 27.0225 -1.46946 0
    endloop
  endfacet
  facet normal -0.994522 0.104529 0
    outer loop
      vertex -5 0 0
      vertex -5 0 23
      vertex -4.89074 1.03956 0
    endloop
  endfacet
  facet normal -0.994522 0.104529 0
    outer loop
      vertex -4.89074 1.03956 0
      vertex -5 0 23
      vertex -4.89074 1.03956 23
    endloop
  endfacet
  facet normal -0.994522 -0.104529 0
    outer loop
      vertex -5 0 0
      vertex -4.89074 -1.03956 0
      vertex -5 0 23
    endloop
  endfacet
  facet normal -0.994522 -0.104529 0
    outer loop
      vertex -5 0 23
      vertex -4.89074 -1.03956 0
      vertex -4.89074 -1.03956 23
    endloop
  endfacet
  facet normal -0.951056 -0.309017 0
    outer loop
      vertex -4.89074 -1.03956 0
      vertex -4.56773 -2.03368 0
      vertex -4.89074 -1.03956 23
    endloop
  endfacet
  facet normal -0.951056 -0.309017 0
    outer loop
      vertex -4.89074 -1.03956 23
      vertex -4.56773 -2.03368 0
      vertex -4.56773 -2.03368 23
    endloop
  endfacet
  facet normal -0.866026 -0.5 0
    outer loop
      vertex -4.56773 -2.03368 0
      vertex -4.04508 -2.93893 0
      vertex -4.56773 -2.03368 23
    endloop
  endfacet
  facet normal -0.866026 -0.5 0
    outer loop
      vertex -4.56773 -2.03368 23
      vertex -4.04508 -2.93893 0
      vertex -4.04508 -2.93893 23
    endloop
  endfacet
  facet normal -0.743145 -0.669131 0
    outer loop
      vertex -4.04508 -2.93893 0
      vertex -3.34565 -3.71572 0
      vertex -4.04508 -2.93893 23
    endloop
  endfacet
  facet normal -0.743145 -0.669131 0
    outer loop
      vertex -4.04508 -2.93893 23
      vertex -3.34565 -3.71572 0
      vertex -3.34565 -3.71572 23
    endloop
  endfacet
  facet normal -0.587785 -0.809017 0
    outer loop
      vertex -3.34565 -3.71572 23
      vertex -3.34565 -3.71572 0
      vertex -2.5 -4.33013 0
    endloop
  endfacet
  facet normal -0.587785 -0.809017 0
    outer loop
      vertex -2.5 -4.33013 23
      vertex -3.34565 -3.71572 23
      vertex -2.5 -4.33013 0
    endloop
  endfacet
  facet normal -0.406737 -0.913545 0
    outer loop
      vertex -2.5 -4.33013 23
      vertex -2.5 -4.33013 0
      vertex -1.54508 -4.75528 0
    endloop
  endfacet
  facet normal -0.406737 -0.913545 0
    outer loop
      vertex -1.54508 -4.75528 23
      vertex -2.5 -4.33013 23
      vertex -1.54508 -4.75528 0
    endloop
  endfacet
  facet normal -0.207911 -0.978148 0
    outer loop
      vertex -1.54508 -4.75528 23
      vertex -1.54508 -4.75528 0
      vertex -0.522642 -4.97261 0
    endloop
  endfacet
  facet normal -0.207911 -0.978148 0
    outer loop
      vertex -0.522642 -4.97261 23
      vertex -1.54508 -4.75528 23
      vertex -0.522642 -4.97261 0
    endloop
  endfacet
  facet normal 0 -1 0
    outer loop
      vertex -0.522642 -4.97261 23
      vertex -0.522642 -4.97261 0
      vertex 0.522642 -4.97261 0
    endloop
  endfacet
  facet normal 0 -1 0
    outer loop
      vertex 0.522642 -4.97261 23
      vertex -0.522642 -4.97261 23
      vertex 0.522642 -4.97261 0
    endloop
  endfacet
  facet normal 0.0999989 -0.994988 0
    outer loop
      vertex 0.522642 -4.97261 23
      vertex 0.522642 -4.97261 0
      vertex 25.2613 -2.4863 0
    endloop
  endfacet
  facet normal 0.0999989 -0.994988 0
    outer loop
      vertex 25.2613 -2.4863 23
      vertex 0.522642 -4.97261 23
      vertex 25.2613 -2.4863 0
    endloop
  endfacet
  facet normal 0.207913 -0.978147 0
    outer loop
      vertex 25.2613 -2.4863 23
      vertex 25.2613 -2.4863 0
      vertex 25.7725 -2.37764 0
    endloop
  endfacet
  facet normal 0.207913 -0.978147 0
    outer loop
      vertex 25.7725 -2.37764 23
      vertex 25.2613 -2.4863 23
      vertex 25.7725 -2.37764 0
    endloop
  endfacet
  facet normal 0.406735 -0.913546 0
    outer loop
      vertex 25.7725 -2.37764 23
      vertex 25.7725 -2.37764 0
      vertex 26.25 -2.16506 0
    endloop
  endfacet
  facet normal 0.406735 -0.913546 0
    outer loop
      vertex 26.25 -2.16506 23
      vertex 25.7725 -2.37764 23
      vertex 26.25 -2.16506 0
    endloop
  endfacet
  facet normal 0.587786 -0.809017 0
    outer loop
      vertex 26.25 -2.16506 23
      vertex 26.25 -2.16506 0
      vertex 26.6728 -1.85786 0
    endloop
  endfacet
  facet normal 0.587786 -0.809017 0
    outer loop
      vertex 26.6728 -1.85786 23
      vertex 26.25 -2.16506 23
      vertex 26.6728 -1.85786 0
    endloop
  endfacet
  facet normal 0.743146 -0.66913 0
    outer loop
      vertex 26.6728 -1.85786 23
      vertex 26.6728 -1.85786 0
      vertex 27.0225 -1.46946 0
    endloop
  endfacet
  facet normal 0.743146 -0.66913 0
    outer loop
      vertex 27.0225 -1.46946 23
      vertex 26.6728 -1.85786 23
      vertex 27.0225 -1.46946 0
    endloop
  endfacet
  facet normal 0.866024 -0.500002 0
    outer loop
      vertex 27.0225 -1.46946 23
      vertex 27.0225 -1.46946 0
      vertex 27.2839 -1.01684 0
    endloop
  endfacet
  facet normal 0.866024 -0.500002 0
    outer loop
      vertex 27.2839 -1.01684 23
      vertex 27.0225 -1.46946 23
      vertex 27.2839 -1.01684 0
    endloop
  endfacet
  facet normal 0.951057 -0.309016 0
    outer loop
      vertex 27.2839 -1.01684 23
      vertex 27.2839 -1.01684 0
      vertex 27.4454 -0.519779 0
    endloop
  endfacet
  facet normal 0.951057 -0.309016 0
    outer loop
      vertex 27.4454 -0.519779 23
      vertex 27.2839 -1.01684 23
      vertex 27.4454 -0.519779 0
    endloop
  endfacet
  facet normal 0.994522 -0.104529 0
    outer loop
      vertex 27.4454 -0.519779 23
      vertex 27.4454 -0.519779 0
      vertex 27.5 0 0
    endloop
  endfacet
  facet normal 0.994522 -0.104529 0
    outer loop
      vertex 27.5 0 23
      vertex 27.4454 -0.519779 23
      vertex 27.5 0 0
    endloop
  endfacet
  facet normal 0.994522 0.104529 0
    outer loop
      vertex 27.5 0 0
      vertex 27.4454 0.519779 0
      vertex 27.4454 0.519779 23
    endloop
  endfacet
  facet normal 0.994522 0.104529 0
    outer loop
      vertex 27.5 0 23
      vertex 27.5 0 0
      vertex 27.4454 0.519779 23
    endloop
  endfacet
  facet normal 0.951057 0.309016 0
    outer loop
      vertex 27.4454 0.519779 0
      vertex 27.2839 1.01684 0
      vertex 27.2839 1.01684 23
    endloop
  endfacet
  facet normal 0.951057 0.309016 0
    outer loop
      vertex 27.4454 0.519779 23
      vertex 27.4454 0.519779 0
      vertex 27.2839 1.01684 23
    endloop
  endfacet
  facet normal 0.866024 0.500002 0
    outer loop
      vertex 27.2839 1.01684 0
      vertex 27.0225 1.46946 0
      vertex 27.0225 1.46946 23
    endloop
  endfacet
  facet normal 0.866024 0.500002 0
    outer loop
      vertex 27.2839 1.01684 23
      vertex 27.2839 1.01684 0
      vertex 27.0225 1.46946 23
    endloop
  endfacet
  facet normal 0.743146 0.66913 0
    outer loop
      vertex 27.0225 1.46946 0
      vertex 26.6728 1.85786 0
      vertex 26.6728 1.85786 23
    endloop
  endfacet
  facet normal 0.743146 0.66913 0
    outer loop
      vertex 27.0225 1.46946 23
      vertex 27.0225 1.46946 0
      vertex 26.6728 1.85786 23
    endloop
  endfacet
  facet normal 0.587786 0.809017 0
    outer loop
      vertex 26.25 2.16506 0
      vertex 26.25 2.16506 23
      vertex 26.6728 1.85786 0
    endloop
  endfacet
  facet normal 0.587786 0.809017 0
    outer loop
      vertex 26.6728 1.85786 0
      vertex 26.25 2.16506 23
      vertex 26.6728 1.85786 23
    endloop
  endfacet
  facet normal 0.406735 0.913546 0
    outer loop
      vertex 25.7725 2.37764 0
      vertex 25.7725 2.37764 23
      vertex 26.25 2.16506 0
    endloop
  endfacet
  facet normal 0.406735 0.913546 0
    outer loop
      vertex 26.25 2.16506 0
      vertex 25.7725 2.37764 23
      vertex 26.25 2.16506 23
    endloop
  endfacet
  facet normal 0.207913 0.978147 0
    outer loop
      vertex 25.2613 2.4863 0
      vertex 25.2613 2.4863 23
      vertex 25.7725 2.37764 0
    endloop
  endfacet
  facet normal 0.207913 0.978147 0
    outer loop
      vertex 25.7725 2.37764 0
      vertex 25.2613 2.4863 23
      vertex 25.7725 2.37764 23
    endloop
  endfacet
  facet normal 0.0999989 0.994988 0
    outer loop
      vertex 0.522642 4.97261 0
      vertex 0.522642 4.97261 23
      vertex 25.2613 2.4863 0
    endloop
  endfacet
  facet normal 0.0999989 0.994988 0
    outer loop
      vertex 25.2613 2.4863 0
      vertex 0.522642 4.97261 23
      vertex 25.2613 2.4863 23
    endloop
  endfacet
  facet normal 0 1 0
    outer loop
      vertex -0.522642 4.97261 0
      vertex -0.522642 4.97261 23
      vertex 0.522642 4.97261 0
    endloop
  endfacet
  facet normal 0 1 0
    outer loop
      vertex 0.522642 4.97261 0
      vertex -0.522642 4.97261 23
      vertex 0.522642 4.97261 23
    endloop
  endfacet
  facet normal -0.207911 0.978148 0
    outer loop
      vertex -1.54508 4.75528 0
      vertex -1.54508 4.75528 23
      vertex -0.522642 4.97261 0
    endloop
  endfacet
  facet normal -0.207911 0.978148 0
    outer loop
      vertex -0.522642 4.97261 0
      vertex -1.54508 4.75528 23
      vertex -0.522642 4.97261 23
    endloop
  endfacet
  facet normal -0.406737 0.913545 0
    outer loop
      vertex -2.5 4.33013 0
      vertex -2.5 4.33013 23
      vertex -1.54508 4.75528 0
    endloop
  endfacet
  facet normal -0.406737 0.913545 0
    outer loop
      vertex -1.54508 4.75528 0
      vertex -2.5 4.33013 23
      vertex -1.54508 4.75528 23
    endloop
  endfacet
  facet normal -0.587785 0.809017 0
    outer loop
      vertex -3.34565 3.71572 0
      vertex -3.34565 3.71572 23
      vertex -2.5 4.33013 0
    endloop
  endfacet
  facet normal -0.587785 0.809017 0
    outer loop
      vertex -2.5 4.33013 0
      vertex -3.34565 3.71572 23
      vertex -2.5 4.33013 23
    endloop
  endfacet
  facet normal -0.743145 0.669131 0
    outer loop
      vertex -4.04508 2.93893 0
      vertex -4.04508 2.93893 23
      vertex -3.34565 3.71572 0
    endloop
  endfacet
  facet normal -0.743145 0.669131 0
    outer loop
      vertex -3.34565 3.71572 0
      vertex -4.04508 2.93893 23
      vertex -3.34565 3.71572 23
    endloop
  endfacet
  facet normal -0.866026 0.5 0
    outer loop
      vertex -4.56773 2.03368 0
      vertex -4.56773 2.03368 23
      vertex -4.04508 2.93893 0
    endloop
  endfacet
  facet normal -0.866026 0.5 0
    outer loop
      vertex -4.04508 2.93893 0
      vertex -4.56773 2.03368 23
      vertex -4.04508 2.93893 23
    endloop
  endfacet
  facet normal -0.951056 0.309017 0
    outer loop
      vertex -4.89074 1.03956 0
      vertex -4.89074 1.03956 23
      vertex -4.56773 2.03368 0
    endloop
  endfacet
  facet normal -0.951056 0.309017 0
    outer loop
      vertex -4.56773 2.03368 0
      vertex -4.89074 1.03956 23
      vertex -4.56773 2.03368 23
    endloop
  endfacet
  facet normal 0.994522 -0.104528 0
    outer loop
      vertex -2.15192 0.457406 0
      vertex -2.15192 0.457406 3
      vertex -2.2 0 3
    endloop
  endfacet
  facet normal 0.994522 -0.104528 0
    outer loop
      vertex -2.2 0 0
      vertex -2.15192 0.457406 0
      vertex -2.2 0 3
    endloop
  endfacet
  facet normal 0.994522 0.104528 0
    outer loop
      vertex -2.2 0 3
      vertex -2.15192 -0.457406 3
      vertex -2.15192 -0.457406 0
    endloop
  endfacet
  facet normal 0.994522 0.104528 0
    outer loop
      vertex -2.2 0 0
      vertex -2.2 0 3
      vertex -2.15192 -0.457406 0
    endloop
  endfacet
  facet normal 0.951056 -0.309017 0
    outer loop
      vertex -2.0098 0.894821 0
      vertex -2.0098 0.894821 3
      vertex -2.15192 0.457406 3
    endloop
  endfacet
  facet normal 0.951056 -0.309017 0
    outer loop
      vertex -2.15192 0.457406 0
      vertex -2.0098 0.894821 0
      vertex -2.15192 0.457406 3
    endloop
  endfacet
  facet normal 0.866025 -0.500001 0
    outer loop
      vertex -1.77984 1.29313 0
      vertex -1.77984 1.29313 3
      vertex -2.0098 0.894821 3
    endloop
  endfacet
  facet normal 0.866025 -0.500001 0
    outer loop
      vertex -2.0098 0.894821 0
      vertex -1.77984 1.29313 0
      vertex -2.0098 0.894821 3
    endloop
  endfacet
  facet normal 0.743145 -0.669131 0
    outer loop
      vertex -1.47209 1.63492 0
      vertex -1.47209 1.63492 3
      vertex -1.77984 1.29313 3
    endloop
  endfacet
  facet normal 0.743145 -0.669131 0
    outer loop
      vertex -1.77984 1.29313 0
      vertex -1.47209 1.63492 0
      vertex -1.77984 1.29313 3
    endloop
  endfacet
  facet normal 0.587785 -0.809017 0
    outer loop
      vertex -1.1 1.90526 0
      vertex -1.1 1.90526 3
      vertex -1.47209 1.63492 3
    endloop
  endfacet
  facet normal 0.587785 -0.809017 0
    outer loop
      vertex -1.47209 1.63492 0
      vertex -1.1 1.90526 0
      vertex -1.47209 1.63492 3
    endloop
  endfacet
  facet normal 0.406736 -0.913546 0
    outer loop
      vertex -0.679837 2.09232 0
      vertex -0.679837 2.09232 3
      vertex -1.1 1.90526 3
    endloop
  endfacet
  facet normal 0.406736 -0.913546 0
    outer loop
      vertex -1.1 1.90526 0
      vertex -0.679837 2.09232 0
      vertex -1.1 1.90526 3
    endloop
  endfacet
  facet normal 0.207912 -0.978147 0
    outer loop
      vertex -0.229963 2.18795 0
      vertex -0.229963 2.18795 3
      vertex -0.679837 2.09232 3
    endloop
  endfacet
  facet normal 0.207912 -0.978147 0
    outer loop
      vertex -0.679837 2.09232 0
      vertex -0.229963 2.18795 0
      vertex -0.679837 2.09232 3
    endloop
  endfacet
  facet normal 0 -1 0
    outer loop
      vertex 0.229963 2.18795 0
      vertex 0.229963 2.18795 3
      vertex -0.229963 2.18795 3
    endloop
  endfacet
  facet normal 0 -1 0
    outer loop
      vertex -0.229963 2.18795 0
      vertex 0.229963 2.18795 0
      vertex -0.229963 2.18795 3
    endloop
  endfacet
  facet normal -0.207912 -0.978147 0
    outer loop
      vertex 0.679837 2.09232 0
      vertex 0.679837 2.09232 3
      vertex 0.229963 2.18795 3
    endloop
  endfacet
  facet normal -0.207912 -0.978147 0
    outer loop
      vertex 0.229963 2.18795 0
      vertex 0.679837 2.09232 0
      vertex 0.229963 2.18795 3
    endloop
  endfacet
  facet normal -0.406736 -0.913546 0
    outer loop
      vertex 1.1 1.90526 0
      vertex 1.1 1.90526 3
      vertex 0.679837 2.09232 3
    endloop
  endfacet
  facet normal -0.406736 -0.913546 0
    outer loop
      vertex 0.679837 2.09232 0
      vertex 1.1 1.90526 0
      vertex 0.679837 2.09232 3
    endloop
  endfacet
  facet normal -0.587785 -0.809017 0
    outer loop
      vertex 1.47209 1.63492 0
      vertex 1.47209 1.63492 3
      vertex 1.1 1.90526 3
    endloop
  endfacet
  facet normal -0.587785 -0.809017 0
    outer loop
      vertex 1.1 1.90526 0
      vertex 1.47209 1.63492 0
      vertex 1.1 1.90526 3
    endloop
  endfacet
  facet normal -0.743145 -0.669131 0
    outer loop
      vertex 1.77984 1.29313 3
      vertex 1.47209 1.63492 3
      vertex 1.77984 1.29313 0
    endloop
  endfacet
  facet normal -0.743145 -0.669131 0
    outer loop
      vertex 1.77984 1.29313 0
      vertex 1.47209 1.63492 3
      vertex 1.47209 1.63492 0
    endloop
  endfacet
  facet normal -0.866025 -0.500001 0
    outer loop
      vertex 2.0098 0.894821 3
      vertex 1.77984 1.29313 3
      vertex 2.0098 0.894821 0
    endloop
  endfacet
  facet normal -0.866025 -0.500001 0
    outer loop
      vertex 2.0098 0.894821 0
      vertex 1.77984 1.29313 3
      vertex 1.77984 1.29313 0
    endloop
  endfacet
  facet normal -0.951056 -0.309017 0
    outer loop
      vertex 2.15192 0.457406 3
      vertex 2.0098 0.894821 3
      vertex 2.15192 0.457406 0
    endloop
  endfacet
  facet normal -0.951056 -0.309017 0
    outer loop
      vertex 2.15192 0.457406 0
      vertex 2.0098 0.894821 3
      vertex 2.0098 0.894821 0
    endloop
  endfacet
  facet normal -0.994522 -0.104528 0
    outer loop
      vertex 2.2 0 3
      vertex 2.15192 0.457406 3
      vertex 2.2 0 0
    endloop
  endfacet
  facet normal -0.994522 -0.104528 0
    outer loop
      vertex 2.2 0 0
      vertex 2.15192 0.457406 3
      vertex 2.15192 0.457406 0
    endloop
  endfacet
  facet normal -0.994522 0.104528 0
    outer loop
      vertex 2.2 0 3
      vertex 2.2 0 0
      vertex 2.15192 -0.457406 3
    endloop
  endfacet
  facet normal -0.994522 0.104528 0
    outer loop
      vertex 2.15192 -0.457406 3
      vertex 2.2 0 0
      vertex 2.15192 -0.457406 0
    endloop
  endfacet
  facet normal -0.951056 0.309017 0
    outer loop
      vertex 2.15192 -0.457406 3
      vertex 2.15192 -0.457406 0
      vertex 2.0098 -0.894821 3
    endloop
  endfacet
  facet normal -0.951056 0.309017 0
    outer loop
      vertex 2.0098 -0.894821 3
      vertex 2.15192 -0.457406 0
      vertex 2.0098 -0.894821 0
    endloop
  endfacet
  facet normal -0.866025 0.500001 0
    outer loop
      vertex 2.0098 -0.894821 3
      vertex 2.0098 -0.894821 0
      vertex 1.77984 -1.29313 3
    endloop
  endfacet
  facet normal -0.866025 0.500001 0
    outer loop
      vertex 1.77984 -1.29313 3
      vertex 2.0098 -0.894821 0
      vertex 1.77984 -1.29313 0
    endloop
  endfacet
  facet normal -0.743145 0.669131 0
    outer loop
      vertex 1.77984 -1.29313 3
      vertex 1.77984 -1.29313 0
      vertex 1.47209 -1.63492 3
    endloop
  endfacet
  facet normal -0.743145 0.669131 0
    outer loop
      vertex 1.47209 -1.63492 3
      vertex 1.77984 -1.29313 0
      vertex 1.47209 -1.63492 0
    endloop
  endfacet
  facet normal -0.587785 0.809017 0
    outer loop
      vertex 1.47209 -1.63492 3
      vertex 1.47209 -1.63492 0
      vertex 1.1 -1.90526 3
    endloop
  endfacet
  facet normal -0.587785 0.809017 0
    outer loop
      vertex 1.1 -1.90526 3
      vertex 1.47209 -1.63492 0
      vertex 1.1 -1.90526 0
    endloop
  endfacet
  facet normal -0.406736 0.913546 0
    outer loop
      vertex 1.1 -1.90526 3
      vertex 1.1 -1.90526 0
      vertex 0.679837 -2.09232 3
    endloop
  endfacet
  facet normal -0.406736 0.913546 0
    outer loop
      vertex 0.679837 -2.09232 3
      vertex 1.1 -1.90526 0
      vertex 0.679837 -2.09232 0
    endloop
  endfacet
  facet normal -0.207912 0.978147 0
    outer loop
      vertex 0.679837 -2.09232 3
      vertex 0.679837 -2.09232 0
      vertex 0.229963 -2.18795 3
    endloop
  endfacet
  facet normal -0.207912 0.978147 0
    outer loop
      vertex 0.229963 -2.18795 3
      vertex 0.679837 -2.09232 0
      vertex 0.229963 -2.18795 0
    endloop
  endfacet
  facet normal 0 1 0
    outer loop
      vertex 0.229963 -2.18795 3
      vertex 0.229963 -2.18795 0
      vertex -0.229963 -2.18795 3
    endloop
  endfacet
  facet normal 0 1 0
    outer loop
      vertex -0.229963 -2.18795 3
      vertex 0.229963 -2.18795 0
      vertex -0.229963 -2.18795 0
    endloop
  endfacet
  facet normal 0.207912 0.978147 0
    outer loop
      vertex -0.229963 -2.18795 3
      vertex -0.229963 -2.18795 0
      vertex -0.679837 -2.09232 3
    endloop
  endfacet
  facet normal 0.207912 0.978147 0
    outer loop
      vertex -0.679837 -2.09232 3
      vertex -0.229963 -2.18795 0
      vertex -0.679837 -2.09232 0
    endloop
  endfacet
  facet normal 0.406736 0.913546 0
    outer loop
      vertex -0.679837 -2.09232 3
      vertex -0.679837 -2.09232 0
      vertex -1.1 -1.90526 3
    endloop
  endfacet
  facet normal 0.406736 0.913546 0
    outer loop
      vertex -1.1 -1.90526 3
      vertex -0.679837 -2.09232 0
      vertex -1.1 -1.90526 0
    endloop
  endfacet
  facet normal 0.587785 0.809017 0
    outer loop
      vertex -1.1 -1.90526 3
      vertex -1.1 -1.90526 0
      vertex -1.47209 -1.63492 3
    endloop
  endfacet
  facet normal 0.587785 0.809017 0
    outer loop
      vertex -1.47209 -1.63492 3
      vertex -1.1 -1.90526 0
      vertex -1.47209 -1.63492 0
    endloop
  endfacet
  facet normal 0.743145 0.669131 0
    outer loop
      vertex -1.77984 -1.29313 3
      vertex -1.47209 -1.63492 3
      vertex -1.47209 -1.63492 0
    endloop
  endfacet
  facet normal 0.743145 0.669131 0
    outer loop
      vertex -1.77984 -1.29313 0
      vertex -1.77984 -1.29313 3
      vertex -1.47209 -1.63492 0
    endloop
  endfacet
  facet normal 0.866025 0.500001 0
    outer loop
      vertex -2.0098 -0.894821 3
      vertex -1.77984 -1.29313 3
      vertex -1.77984 -1.29313 0
    endloop
  endfacet
  facet normal 0.866025 0.500001 0
    outer loop
      vertex -2.0098 -0.894821 0
      vertex -2.0098 -0.894821 3
      vertex -1.77984 -1.29313 0
    endloop
  endfacet
  facet normal 0.951056 0.309017 0
    outer loop
      vertex -2.15192 -0.457406 3
      vertex -2.0098 -0.894821 3
      vertex -2.0098 -0.894821 0
    endloop
  endfacet
  facet normal 0.951056 0.309017 0
    outer loop
      vertex -2.15192 -0.457406 0
      vertex -2.15192 -0.457406 3
      vertex -2.0098 -0.894821 0
    endloop
  endfacet
  facet normal 0 0 1
    outer loop
      vertex -4.89074 1.03956 23
      vertex -5 0 23
      vertex -4.89074 -1.03956 23
    endloop
  endfacet
  facet normal 0 0 1
    outer loop
      vertex -4.04508 -2.93893 23
      vertex -4.89074 1.03956 23
      vertex -4.56773 -2.03368 23
    endloop
  endfacet
  facet normal 0 0 1
    outer loop
      vertex -4.56773 -2.03368 23
      vertex -4.89074 1.03956 23
      vertex -4.89074 -1.03956 23
    endloop
  endfacet
  facet normal 0 0 1
    outer loop
      vertex -3.34565 -3.71572 23
      vertex -4.89074 1.03956 23
      vertex -4.04508 -2.93893 23
    endloop
  endfacet
  facet normal 0 0 1
    outer loop
      vertex -2.5 -4.33013 23
      vertex -4.89074 1.03956 23
      vertex -3.34565 -3.71572 23
    endloop
  endfacet
  facet normal 0 0 1
    outer loop
      vertex -3.65418 -1.62695 23
      vertex -4.89074 1.03956 23
      vertex -2.5 -4.33013 23
    endloop
  endfacet
  facet normal 0 0 1
    outer loop
      vertex 3.65418 1.62695 23
      vertex 26.6728 1.85786 23
      vertex 26.25 2.16506 23
    endloop
  endfacet
  facet normal 0 0 1
    outer loop
      vertex -1.23607 -3.80423 23
      vertex -2 -3.4641 23
      vertex -0.522642 -4.97261 23
    endloop
  endfacet
  facet normal 0 0 1
    outer loop
      vertex 3.65418 1.62695 23
      vertex 25.7725 2.37764 23
      vertex 25.2613 2.4863 23
    endloop
  endfacet
  facet normal 0 0 1
    outer loop
      vertex 3.65418 1.62695 23
      vertex 3.91259 0.831647 23
      vertex 27.4454 0.519779 23
    endloop
  endfacet
  facet normal 0 0 1
    outer loop
      vertex -1.23607 3.80423 23
      vertex -0.418114 3.97809 23
      vertex 0.522642 4.97261 23
    endloop
  endfacet
  facet normal 0 0 1
    outer loop
      vertex -3.65418 1.62695 23
      vertex -3.23607 2.35114 23
      vertex -4.89074 1.03956 23
    endloop
  endfacet
  facet normal 0 0 1
    outer loop
      vertex -1.54508 4.75528 23
      vertex -4.89074 1.03956 23
      vertex -0.522642 4.97261 23
    endloop
  endfacet
  facet normal 0 0 1
    outer loop
      vertex -2.5 4.33013 23
      vertex -4.89074 1.03956 23
      vertex -1.54508 4.75528 23
    endloop
  endfacet
  facet normal 0 0 1
    outer loop
      vertex -3.34565 3.71572 23
      vertex -4.89074 1.03956 23
      vertex -2.5 4.33013 23
    endloop
  endfacet
  facet normal 0 0 1
    outer loop
      vertex -4.04508 2.93893 23
      vertex -4.89074 1.03956 23
      vertex -3.34565 3.71572 23
    endloop
  endfacet
  facet normal 0 0 1
    outer loop
      vertex -4.56773 2.03368 23
      vertex -4.89074 1.03956 23
      vertex -4.04508 2.93893 23
    endloop
  endfacet
  facet normal 0 0 1
    outer loop
      vertex 3.65418 1.62695 23
      vertex 27.0225 1.46946 23
      vertex 26.6728 1.85786 23
    endloop
  endfacet
  facet normal 0 0 1
    outer loop
      vertex 3.65418 1.62695 23
      vertex 26.25 2.16506 23
      vertex 25.7725 2.37764 23
    endloop
  endfacet
  facet normal 0 0 1
    outer loop
      vertex -2 -3.4641 23
      vertex -2.67652 -2.97258 23
      vertex -1.54508 -4.75528 23
    endloop
  endfacet
  facet normal 0 0 1
    outer loop
      vertex 3.65418 1.62695 23
      vertex 27.2839 1.01684 23
      vertex 27.0225 1.46946 23
    endloop
  endfacet
  facet normal 0 0 1
    outer loop
      vertex -2.67652 2.97258 23
      vertex -2 3.4641 23
      vertex -0.522642 4.97261 23
    endloop
  endfacet
  facet normal 0 0 1
    outer loop
      vertex 3.65418 1.62695 23
      vertex 27.4454 0.519779 23
      vertex 27.2839 1.01684 23
    endloop
  endfacet
  facet normal 0 0 1
    outer loop
      vertex -2.67652 2.97258 23
      vertex -4.89074 1.03956 23
      vertex -3.23607 2.35114 23
    endloop
  endfacet
  facet normal 0 0 1
    outer loop
      vertex -0.522642 4.97261 23
      vertex -4.89074 1.03956 23
      vertex -2.67652 2.97258 23
    endloop
  endfacet
  facet normal 0 0 1
    outer loop
      vertex -0.522642 4.97261 23
      vertex -2 3.4641 23
      vertex 0.522642 4.97261 23
    endloop
  endfacet
  facet normal 0 0 1
    outer loop
      vertex -2 3.4641 23
      vertex -1.23607 3.80423 23
      vertex 0.522642 4.97261 23
    endloop
  endfacet
  facet normal 0 0 1
    outer loop
      vertex 3.23607 2.35114 23
      vertex 3.65418 1.62695 23
      vertex 25.2613 2.4863 23
    endloop
  endfacet
  facet normal 0 0 1
    outer loop
      vertex 0.522642 4.97261 23
      vertex 0.418114 3.97809 23
      vertex 25.2613 2.4863 23
    endloop
  endfacet
  facet normal 0 0 1
    outer loop
      vertex 0.522642 4.97261 23
      vertex -0.418114 3.97809 23
      vertex 0.418114 3.97809 23
    endloop
  endfacet
  facet normal 0 0 1
    outer loop
      vertex 1.23607 3.80423 23
      vertex 2 3.4641 23
      vertex 25.2613 2.4863 23
    endloop
  endfacet
  facet normal 0 0 1
    outer loop
      vertex 2 3.4641 23
      vertex 2.67652 2.97258 23
      vertex 25.2613 2.4863 23
    endloop
  endfacet
  facet normal 0 0 1
    outer loop
      vertex 2.67652 2.97258 23
      vertex 3.23607 2.35114 23
      vertex 25.2613 2.4863 23
    endloop
  endfacet
  facet normal 0 0 1
    outer loop
      vertex 0.418114 3.97809 23
      vertex 1.23607 3.80423 23
      vertex 25.2613 2.4863 23
    endloop
  endfacet
  facet normal 0 0 1
    outer loop
      vertex 27.4454 0.519779 23
      vertex 3.91259 0.831647 23
      vertex 27.5 0 23
    endloop
  endfacet
  facet normal 0 0 1
    outer loop
      vertex 25.7725 -2.37764 23
      vertex 4 0 23
      vertex 25.2613 -2.4863 23
    endloop
  endfacet
  facet normal 0 0 1
    outer loop
      vertex 0.418114 -3.97809 23
      vertex -0.418114 -3.97809 23
      vertex 0.522642 -4.97261 23
    endloop
  endfacet
  facet normal 0 0 1
    outer loop
      vertex 25.2613 -2.4863 23
      vertex 3.91259 -0.831647 23
      vertex 3.65418 -1.62695 23
    endloop
  endfacet
  facet normal 0 0 1
    outer loop
      vertex 25.2613 -2.4863 23
      vertex 3.65418 -1.62695 23
      vertex 3.23607 -2.35114 23
    endloop
  endfacet
  facet normal 0 0 1
    outer loop
      vertex 25.2613 -2.4863 23
      vertex 2.67652 -2.97258 23
      vertex 0.522642 -4.97261 23
    endloop
  endfacet
  facet normal 0 0 1
    outer loop
      vertex 25.2613 -2.4863 23
      vertex 3.23607 -2.35114 23
      vertex 2.67652 -2.97258 23
    endloop
  endfacet
  facet normal 0 0 1
    outer loop
      vertex 1.23607 -3.80423 23
      vertex 0.418114 -3.97809 23
      vertex 0.522642 -4.97261 23
    endloop
  endfacet
  facet normal 0 0 1
    outer loop
      vertex 0.522642 -4.97261 23
      vertex -0.418114 -3.97809 23
      vertex -0.522642 -4.97261 23
    endloop
  endfacet
  facet normal 0 0 1
    outer loop
      vertex -0.418114 -3.97809 23
      vertex -1.23607 -3.80423 23
      vertex -0.522642 -4.97261 23
    endloop
  endfacet
  facet normal 0 0 1
    outer loop
      vertex -0.522642 -4.97261 23
      vertex -2 -3.4641 23
      vertex -1.54508 -4.75528 23
    endloop
  endfacet
  facet normal 0 0 1
    outer loop
      vertex -4 0 23
      vertex -3.91259 0.831647 23
      vertex -4.89074 1.03956 23
    endloop
  endfacet
  facet normal 0 0 1
    outer loop
      vertex -1.54508 -4.75528 23
      vertex -2.67652 -2.97258 23
      vertex -2.5 -4.33013 23
    endloop
  endfacet
  facet normal 0 0 1
    outer loop
      vertex -2.67652 -2.97258 23
      vertex -3.23607 -2.35114 23
      vertex -2.5 -4.33013 23
    endloop
  endfacet
  facet normal 0 0 1
    outer loop
      vertex -3.91259 -0.831647 23
      vertex -4.89074 1.03956 23
      vertex -3.65418 -1.62695 23
    endloop
  endfacet
  facet normal 0 0 1
    outer loop
      vertex -3.23607 -2.35114 23
      vertex -3.65418 -1.62695 23
      vertex -2.5 -4.33013 23
    endloop
  endfacet
  facet normal 0 0 1
    outer loop
      vertex -3.91259 -0.831647 23
      vertex -4 0 23
      vertex -4.89074 1.03956 23
    endloop
  endfacet
  facet normal 0 0 1
    outer loop
      vertex 3.91259 0.831647 23
      vertex 4 0 23
      vertex 25.7725 -2.37764 23
    endloop
  endfacet
  facet normal 0 0 1
    outer loop
      vertex 3.91259 0.831647 23
      vertex 25.7725 -2.37764 23
      vertex 26.25 -2.16506 23
    endloop
  endfacet
  facet normal 0 0 1
    outer loop
      vertex 3.91259 0.831647 23
      vertex 26.25 -2.16506 23
      vertex 26.6728 -1.85786 23
    endloop
  endfacet
  facet normal 0 0 1
    outer loop
      vertex 3.91259 0.831647 23
      vertex 27.4454 -0.519779 23
      vertex 27.5 0 23
    endloop
  endfacet
  facet normal 0 0 1
    outer loop
      vertex 3.91259 0.831647 23
      vertex 27.2839 -1.01684 23
      vertex 27.4454 -0.519779 23
    endloop
  endfacet
  facet normal 0 0 1
    outer loop
      vertex 3.91259 0.831647 23
      vertex 27.0225 -1.46946 23
      vertex 27.2839 -1.01684 23
    endloop
  endfacet
  facet normal 0 0 1
    outer loop
      vertex 3.91259 0.831647 23
      vertex 26.6728 -1.85786 23
      vertex 27.0225 -1.46946 23
    endloop
  endfacet
  facet normal 0 0 1
    outer loop
      vertex 2 -3.4641 23
      vertex 1.23607 -3.80423 23
      vertex 0.522642 -4.97261 23
    endloop
  endfacet
  facet normal 0 0 1
    outer loop
      vertex 4 0 23
      vertex 3.91259 -0.831647 23
      vertex 25.2613 -2.4863 23
    endloop
  endfacet
  facet normal 0 0 1
    outer loop
      vertex 2.67652 -2.97258 23
      vertex 2 -3.4641 23
      vertex 0.522642 -4.97261 23
    endloop
  endfacet
  facet normal 0 0 1
    outer loop
      vertex -3.91259 0.831647 23
      vertex -3.65418 1.62695 23
      vertex -4.89074 1.03956 23
    endloop
  endfacet
  facet normal 0 0 1
    outer loop
      vertex -3.91259 -0.831647 3
      vertex -3.65418 -1.62695 3
      vertex -3.23607 -2.35114 3
    endloop
  endfacet
  facet normal 0 0 1
    outer loop
      vertex -2 -3.4641 3
      vertex -3.91259 -0.831647 3
      vertex -2.67652 -2.97258 3
    endloop
  endfacet
  facet normal 0 0 1
    outer loop
      vertex -2.67652 -2.97258 3
      vertex -3.91259 -0.831647 3
      vertex -3.23607 -2.35114 3
    endloop
  endfacet
  facet normal 0 0 1
    outer loop
      vertex -1.23607 -3.80423 3
      vertex -3.91259 -0.831647 3
      vertex -2 -3.4641 3
    endloop
  endfacet
  facet normal 0 0 1
    outer loop
      vertex -0.418114 -3.97809 3
      vertex -3.91259 -0.831647 3
      vertex -1.23607 -3.80423 3
    endloop
  endfacet
  facet normal 0 0 1
    outer loop
      vertex 0.418114 -3.97809 3
      vertex -3.91259 -0.831647 3
      vertex -0.418114 -3.97809 3
    endloop
  endfacet
  facet normal 0 0 1
    outer loop
      vertex 1.23607 -3.80423 3
      vertex -3.91259 -0.831647 3
      vertex 0.418114 -3.97809 3
    endloop
  endfacet
  facet normal 0 0 1
    outer loop
      vertex 2 -3.4641 3
      vertex -3.91259 -0.831647 3
      vertex 1.23607 -3.80423 3
    endloop
  endfacet
  facet normal 0 0 1
    outer loop
      vertex -0.679837 -2.09232 3
      vertex -3.91259 -0.831647 3
      vertex 2 -3.4641 3
    endloop
  endfacet
  facet normal 0 0 1
    outer loop
      vertex -1.1 -1.90526 3
      vertex -1.47209 -1.63492 3
      vertex -3.91259 -0.831647 3
    endloop
  endfacet
  facet normal 0 0 1
    outer loop
      vertex 0.679837 -2.09232 3
      vertex 0.229963 -2.18795 3
      vertex 2.67652 -2.97258 3
    endloop
  endfacet
  facet normal 0 0 1
    outer loop
      vertex 1.47209 -1.63492 3
      vertex 1.1 -1.90526 3
      vertex 3.23607 -2.35114 3
    endloop
  endfacet
  facet normal 0 0 1
    outer loop
      vertex 1.77984 -1.29313 3
      vertex 1.47209 -1.63492 3
      vertex 3.65418 -1.62695 3
    endloop
  endfacet
  facet normal 0 0 1
    outer loop
      vertex 2.15192 -0.457406 3
      vertex 2.0098 -0.894821 3
      vertex 3.91259 -0.831647 3
    endloop
  endfacet
  facet normal 0 0 1
    outer loop
      vertex 1.47209 1.63492 3
      vertex 1.77984 1.29313 3
      vertex 3.23607 2.35114 3
    endloop
  endfacet
  facet normal 0 0 1
    outer loop
      vertex -0.679837 2.09232 3
      vertex -0.229963 2.18795 3
      vertex 1.23607 3.80423 3
    endloop
  endfacet
  facet normal 0 0 1
    outer loop
      vertex 0.229963 2.18795 3
      vertex 0.679837 2.09232 3
      vertex 2 3.4641 3
    endloop
  endfacet
  facet normal 0 0 1
    outer loop
      vertex -0.418114 3.97809 3
      vertex -3.91259 -0.831647 3
      vertex 0.418114 3.97809 3
    endloop
  endfacet
  facet normal 0 0 1
    outer loop
      vertex -1.23607 3.80423 3
      vertex -3.91259 -0.831647 3
      vertex -0.418114 3.97809 3
    endloop
  endfacet
  facet normal 0 0 1
    outer loop
      vertex -2 3.4641 3
      vertex -3.91259 -0.831647 3
      vertex -1.23607 3.80423 3
    endloop
  endfacet
  facet normal 0 0 1
    outer loop
      vertex -2.67652 2.97258 3
      vertex -3.91259 -0.831647 3
      vertex -2 3.4641 3
    endloop
  endfacet
  facet normal 0 0 1
    outer loop
      vertex -3.23607 2.35114 3
      vertex -3.91259 -0.831647 3
      vertex -2.67652 2.97258 3
    endloop
  endfacet
  facet normal 0 0 1
    outer loop
      vertex -3.65418 1.62695 3
      vertex -3.91259 -0.831647 3
      vertex -3.23607 2.35114 3
    endloop
  endfacet
  facet normal 0 0 1
    outer loop
      vertex -3.91259 0.831647 3
      vertex -3.91259 -0.831647 3
      vertex -3.65418 1.62695 3
    endloop
  endfacet
  facet normal 0 0 1
    outer loop
      vertex -4 0 3
      vertex -3.91259 -0.831647 3
      vertex -3.91259 0.831647 3
    endloop
  endfacet
  facet normal 0 0 1
    outer loop
      vertex 1.77984 1.29313 3
      vertex 2.0098 0.894821 3
      vertex 3.65418 1.62695 3
    endloop
  endfacet
  facet normal 0 0 1
    outer loop
      vertex -1.77984 -1.29313 3
      vertex -2.0098 -0.894821 3
      vertex -3.91259 -0.831647 3
    endloop
  endfacet
  facet normal 0 0 1
    outer loop
      vertex -1.47209 1.63492 3
      vertex -1.1 1.90526 3
      vertex 0.418114 3.97809 3
    endloop
  endfacet
  facet normal 0 0 1
    outer loop
      vertex 0.679837 2.09232 3
      vertex 1.1 1.90526 3
      vertex 2.67652 2.97258 3
    endloop
  endfacet
  facet normal 0 0 1
    outer loop
      vertex -1.77984 1.29313 3
      vertex -3.91259 -0.831647 3
      vertex -2.0098 0.894821 3
    endloop
  endfacet
  facet normal 0 0 1
    outer loop
      vertex 0.418114 3.97809 3
      vertex -3.91259 -0.831647 3
      vertex -1.77984 1.29313 3
    endloop
  endfacet
  facet normal 0 0 1
    outer loop
      vertex 0.418114 3.97809 3
      vertex -1.77984 1.29313 3
      vertex -1.47209 1.63492 3
    endloop
  endfacet
  facet normal 0 0 1
    outer loop
      vertex 0.418114 3.97809 3
      vertex -1.1 1.90526 3
      vertex 1.23607 3.80423 3
    endloop
  endfacet
  facet normal 0 0 1
    outer loop
      vertex -1.1 1.90526 3
      vertex -0.679837 2.09232 3
      vertex 1.23607 3.80423 3
    endloop
  endfacet
  facet normal 0 0 1
    outer loop
      vertex 1.23607 3.80423 3
      vertex -0.229963 2.18795 3
      vertex 2 3.4641 3
    endloop
  endfacet
  facet normal 0 0 1
    outer loop
      vertex -0.229963 2.18795 3
      vertex 0.229963 2.18795 3
      vertex 2 3.4641 3
    endloop
  endfacet
  facet normal 0 0 1
    outer loop
      vertex 2 3.4641 3
      vertex 0.679837 2.09232 3
      vertex 2.67652 2.97258 3
    endloop
  endfacet
  facet normal 0 0 1
    outer loop
      vertex -2.15192 0.457406 3
      vertex -2.0098 0.894821 3
      vertex -3.91259 -0.831647 3
    endloop
  endfacet
  facet normal 0 0 1
    outer loop
      vertex 2.67652 2.97258 3
      vertex 1.1 1.90526 3
      vertex 3.23607 2.35114 3
    endloop
  endfacet
  facet normal 0 0 1
    outer loop
      vertex 1.1 1.90526 3
      vertex 1.47209 1.63492 3
      vertex 3.23607 2.35114 3
    endloop
  endfacet
  facet normal 0 0 1
    outer loop
      vertex 3.23607 2.35114 3
      vertex 1.77984 1.29313 3
      vertex 3.65418 1.62695 3
    endloop
  endfacet
  facet normal 0 0 1
    outer loop
      vertex -1.47209 -1.63492 3
      vertex -1.77984 -1.29313 3
      vertex -3.91259 -0.831647 3
    endloop
  endfacet
  facet normal 0 0 1
    outer loop
      vertex 3.65418 1.62695 3
      vertex 2.0098 0.894821 3
      vertex 3.91259 0.831647 3
    endloop
  endfacet
  facet normal 0 0 1
    outer loop
      vertex -2.2 0 3
      vertex -2.15192 0.457406 3
      vertex -3.91259 -0.831647 3
    endloop
  endfacet
  facet normal 0 0 1
    outer loop
      vertex 2.0098 0.894821 3
      vertex 2.15192 0.457406 3
      vertex 3.91259 0.831647 3
    endloop
  endfacet
  facet normal 0 0 1
    outer loop
      vertex 3.91259 0.831647 3
      vertex 2.2 0 3
      vertex 4 0 3
    endloop
  endfacet
  facet normal 0 0 1
    outer loop
      vertex 4 0 3
      vertex 2.15192 -0.457406 3
      vertex 3.91259 -0.831647 3
    endloop
  endfacet
  facet normal 0 0 1
    outer loop
      vertex 3.91259 -0.831647 3
      vertex 2.0098 -0.894821 3
      vertex 3.65418 -1.62695 3
    endloop
  endfacet
  facet normal 0 0 1
    outer loop
      vertex 2.0098 -0.894821 3
      vertex 1.77984 -1.29313 3
      vertex 3.65418 -1.62695 3
    endloop
  endfacet
  facet normal 0 0 1
    outer loop
      vertex 3.65418 -1.62695 3
      vertex 1.47209 -1.63492 3
      vertex 3.23607 -2.35114 3
    endloop
  endfacet
  facet normal 0 0 1
    outer loop
      vertex 3.23607 -2.35114 3
      vertex 1.1 -1.90526 3
      vertex 2.67652 -2.97258 3
    endloop
  endfacet
  facet normal 0 0 1
    outer loop
      vertex 1.1 -1.90526 3
      vertex 0.679837 -2.09232 3
      vertex 2.67652 -2.97258 3
    endloop
  endfacet
  facet normal 0 0 1
    outer loop
      vertex 2.67652 -2.97258 3
      vertex 0.229963 -2.18795 3
      vertex 2 -3.4641 3
    endloop
  endfacet
  facet normal 0 0 1
    outer loop
      vertex 0.229963 -2.18795 3
      vertex -0.229963 -2.18795 3
      vertex 2 -3.4641 3
    endloop
  endfacet
  facet normal 0 0 1
    outer loop
      vertex -0.229963 -2.18795 3
      vertex -0.679837 -2.09232 3
      vertex 2 -3.4641 3
    endloop
  endfacet
  facet normal 0 0 1
    outer loop
      vertex -1.1 -1.90526 3
      vertex -3.91259 -0.831647 3
      vertex -0.679837 -2.09232 3
    endloop
  endfacet
  facet normal 0 0 1
    outer loop
      vertex -2.0098 -0.894821 3
      vertex -2.15192 -0.457406 3
      vertex -3.91259 -0.831647 3
    endloop
  endfacet
  facet normal 0 0 1
    outer loop
      vertex 2.15192 0.457406 3
      vertex 2.2 0 3
      vertex 3.91259 0.831647 3
    endloop
  endfacet
  facet normal 0 0 1
    outer loop
      vertex 2.2 0 3
      vertex 2.15192 -0.457406 3
      vertex 4 0 3
    endloop
  endfacet
  facet normal 0 0 1
    outer loop
      vertex -2.15192 -0.457406 3
      vertex -2.2 0 3
      vertex -3.91259 -0.831647 3
    endloop
  endfacet
  facet normal 0.994522 0.104529 0
    outer loop
      vertex -4 0 23
      vertex -3.91259 -0.831647 23
      vertex -3.91259 -0.831647 3
    endloop
  endfacet
  facet normal 0.994522 0.104529 0
    outer loop
      vertex -4 0 3
      vertex -4 0 23
      vertex -3.91259 -0.831647 3
    endloop
  endfacet
  facet normal 0.951057 0.309016 0
    outer loop
      vertex -3.91259 -0.831647 23
      vertex -3.65418 -1.62695 23
      vertex -3.65418 -1.62695 3
    endloop
  endfacet
  facet normal 0.951057 0.309016 0
    outer loop
      vertex -3.91259 -0.831647 3
      vertex -3.91259 -0.831647 23
      vertex -3.65418 -1.62695 3
    endloop
  endfacet
  facet normal 0.866025 0.5 0
    outer loop
      vertex -3.65418 -1.62695 23
      vertex -3.23607 -2.35114 23
      vertex -3.23607 -2.35114 3
    endloop
  endfacet
  facet normal 0.866025 0.5 0
    outer loop
      vertex -3.65418 -1.62695 3
      vertex -3.65418 -1.62695 23
      vertex -3.23607 -2.35114 3
    endloop
  endfacet
  facet normal 0.743144 0.669131 0
    outer loop
      vertex -3.23607 -2.35114 23
      vertex -2.67652 -2.97258 23
      vertex -2.67652 -2.97258 3
    endloop
  endfacet
  facet normal 0.743144 0.669131 0
    outer loop
      vertex -3.23607 -2.35114 3
      vertex -3.23607 -2.35114 23
      vertex -2.67652 -2.97258 3
    endloop
  endfacet
  facet normal 0.587786 0.809016 0
    outer loop
      vertex -2 -3.4641 23
      vertex -2 -3.4641 3
      vertex -2.67652 -2.97258 23
    endloop
  endfacet
  facet normal 0.587786 0.809016 0
    outer loop
      vertex -2.67652 -2.97258 23
      vertex -2 -3.4641 3
      vertex -2.67652 -2.97258 3
    endloop
  endfacet
  facet normal 0.406736 0.913546 0
    outer loop
      vertex -1.23607 -3.80423 23
      vertex -1.23607 -3.80423 3
      vertex -2 -3.4641 23
    endloop
  endfacet
  facet normal 0.406736 0.913546 0
    outer loop
      vertex -2 -3.4641 23
      vertex -1.23607 -3.80423 3
      vertex -2 -3.4641 3
    endloop
  endfacet
  facet normal 0.207912 0.978147 0
    outer loop
      vertex -0.418114 -3.97809 23
      vertex -0.418114 -3.97809 3
      vertex -1.23607 -3.80423 23
    endloop
  endfacet
  facet normal 0.207912 0.978147 0
    outer loop
      vertex -1.23607 -3.80423 23
      vertex -0.418114 -3.97809 3
      vertex -1.23607 -3.80423 3
    endloop
  endfacet
  facet normal 0 1 0
    outer loop
      vertex 0.418114 -3.97809 23
      vertex 0.418114 -3.97809 3
      vertex -0.418114 -3.97809 23
    endloop
  endfacet
  facet normal 0 1 0
    outer loop
      vertex -0.418114 -3.97809 23
      vertex 0.418114 -3.97809 3
      vertex -0.418114 -3.97809 3
    endloop
  endfacet
  facet normal -0.207912 0.978147 0
    outer loop
      vertex 1.23607 -3.80423 23
      vertex 1.23607 -3.80423 3
      vertex 0.418114 -3.97809 23
    endloop
  endfacet
  facet normal -0.207912 0.978147 0
    outer loop
      vertex 0.418114 -3.97809 23
      vertex 1.23607 -3.80423 3
      vertex 0.418114 -3.97809 3
    endloop
  endfacet
  facet normal -0.406736 0.913546 0
    outer loop
      vertex 2 -3.4641 23
      vertex 2 -3.4641 3
      vertex 1.23607 -3.80423 23
    endloop
  endfacet
  facet normal -0.406736 0.913546 0
    outer loop
      vertex 1.23607 -3.80423 23
      vertex 2 -3.4641 3
      vertex 1.23607 -3.80423 3
    endloop
  endfacet
  facet normal -0.587786 0.809016 0
    outer loop
      vertex 2.67652 -2.97258 23
      vertex 2.67652 -2.97258 3
      vertex 2 -3.4641 23
    endloop
  endfacet
  facet normal -0.587786 0.809016 0
    outer loop
      vertex 2 -3.4641 23
      vertex 2.67652 -2.97258 3
      vertex 2 -3.4641 3
    endloop
  endfacet
  facet normal -0.743144 0.669131 0
    outer loop
      vertex 3.23607 -2.35114 23
      vertex 3.23607 -2.35114 3
      vertex 2.67652 -2.97258 23
    endloop
  endfacet
  facet normal -0.743144 0.669131 0
    outer loop
      vertex 2.67652 -2.97258 23
      vertex 3.23607 -2.35114 3
      vertex 2.67652 -2.97258 3
    endloop
  endfacet
  facet normal -0.866025 0.5 0
    outer loop
      vertex 3.65418 -1.62695 23
      vertex 3.65418 -1.62695 3
      vertex 3.23607 -2.35114 23
    endloop
  endfacet
  facet normal -0.866025 0.5 0
    outer loop
      vertex 3.23607 -2.35114 23
      vertex 3.65418 -1.62695 3
      vertex 3.23607 -2.35114 3
    endloop
  endfacet
  facet normal -0.951057 0.309016 0
    outer loop
      vertex 3.91259 -0.831647 23
      vertex 3.91259 -0.831647 3
      vertex 3.65418 -1.62695 23
    endloop
  endfacet
  facet normal -0.951057 0.309016 0
    outer loop
      vertex 3.65418 -1.62695 23
      vertex 3.91259 -0.831647 3
      vertex 3.65418 -1.62695 3
    endloop
  endfacet
  facet normal -0.994522 0.104529 0
    outer loop
      vertex 4 0 23
      vertex 4 0 3
      vertex 3.91259 -0.831647 23
    endloop
  endfacet
  facet normal -0.994522 0.104529 0
    outer loop
      vertex 3.91259 -0.831647 23
      vertex 4 0 3
      vertex 3.91259 -0.831647 3
    endloop
  endfacet
  facet normal -0.994522 -0.104529 0
    outer loop
      vertex 4 0 23
      vertex 3.91259 0.831647 23
      vertex 4 0 3
    endloop
  endfacet
  facet normal -0.994522 -0.104529 0
    outer loop
      vertex 4 0 3
      vertex 3.91259 0.831647 23
      vertex 3.91259 0.831647 3
    endloop
  endfacet
  facet normal -0.951057 -0.309016 0
    outer loop
      vertex 3.91259 0.831647 23
      vertex 3.65418 1.62695 23
      vertex 3.91259 0.831647 3
    endloop
  endfacet
  facet normal -0.951057 -0.309016 0
    outer loop
      vertex 3.91259 0.831647 3
      vertex 3.65418 1.62695 23
      vertex 3.65418 1.62695 3
    endloop
  endfacet
  facet normal -0.866025 -0.5 0
    outer loop
      vertex 3.65418 1.62695 23
      vertex 3.23607 2.35114 23
      vertex 3.65418 1.62695 3
    endloop
  endfacet
  facet normal -0.866025 -0.5 0
    outer loop
      vertex 3.65418 1.62695 3
      vertex 3.23607 2.35114 23
      vertex 3.23607 2.35114 3
    endloop
  endfacet
  facet normal -0.743144 -0.669131 0
    outer loop
      vertex 3.23607 2.35114 23
      vertex 2.67652 2.97258 23
      vertex 3.23607 2.35114 3
    endloop
  endfacet
  facet normal -0.743144 -0.669131 0
    outer loop
      vertex 3.23607 2.35114 3
      vertex 2.67652 2.97258 23
      vertex 2.67652 2.97258 3
    endloop
  endfacet
  facet normal -0.587786 -0.809016 0
    outer loop
      vertex 2.67652 2.97258 3
      vertex 2.67652 2.97258 23
      vertex 2 3.4641 23
    endloop
  endfacet
  facet normal -0.587786 -0.809016 0
    outer loop
      vertex 2 3.4641 3
      vertex 2.67652 2.97258 3
      vertex 2 3.4641 23
    endloop
  endfacet
  facet normal -0.406736 -0.913546 0
    outer loop
      vertex 2 3.4641 3
      vertex 2 3.4641 23
      vertex 1.23607 3.80423 23
    endloop
  endfacet
  facet normal -0.406736 -0.913546 0
    outer loop
      vertex 1.23607 3.80423 3
      vertex 2 3.4641 3
      vertex 1.23607 3.80423 23
    endloop
  endfacet
  facet normal -0.207912 -0.978147 0
    outer loop
      vertex 1.23607 3.80423 3
      vertex 1.23607 3.80423 23
      vertex 0.418114 3.97809 23
    endloop
  endfacet
  facet normal -0.207912 -0.978147 0
    outer loop
      vertex 0.418114 3.97809 3
      vertex 1.23607 3.80423 3
      vertex 0.418114 3.97809 23
    endloop
  endfacet
  facet normal 0 -1 0
    outer loop
      vertex 0.418114 3.97809 3
      vertex 0.418114 3.97809 23
      vertex -0.418114 3.97809 23
    endloop
  endfacet
  facet normal 0 -1 0
    outer loop
      vertex -0.418114 3.97809 3
      vertex 0.418114 3.97809 3
      vertex -0.418114 3.97809 23
    endloop
  endfacet
  facet normal 0.207912 -0.978147 0
    outer loop
      vertex -0.418114 3.97809 3
      vertex -0.418114 3.97809 23
      vertex -1.23607 3.80423 23
    endloop
  endfacet
  facet normal 0.207912 -0.978147 0
    outer loop
      vertex -1.23607 3.80423 3
      vertex -0.418114 3.97809 3
      vertex -1.23607 3.80423 23
    endloop
  endfacet
  facet normal 0.406736 -0.913546 0
    outer loop
      vertex -1.23607 3.80423 3
      vertex -1.23607 3.80423 23
      vertex -2 3.4641 23
    endloop
  endfacet
  facet normal 0.406736 -0.913546 0
    outer loop
      vertex -2 3.4641 3
      vertex -1.23607 3.80423 3
      vertex -2 3.4641 23
    endloop
  endfacet
  facet normal 0.587786 -0.809016 0
    outer loop
      vertex -2 3.4641 3
      vertex -2 3.4641 23
      vertex -2.67652 2.97258 23
    endloop
  endfacet
  facet normal 0.587786 -0.809016 0
    outer loop
      vertex -2.67652 2.97258 3
      vertex -2 3.4641 3
      vertex -2.67652 2.97258 23
    endloop
  endfacet
  facet normal 0.743144 -0.669131 0
    outer loop
      vertex -2.67652 2.97258 3
      vertex -2.67652 2.97258 23
      vertex -3.23607 2.35114 23
    endloop
  endfacet
  facet normal 0.743144 -0.669131 0
    outer loop
      vertex -3.23607 2.35114 3
      vertex -2.67652 2.97258 3
      vertex -3.23607 2.35114 23
    endloop
  endfacet
  facet normal 0.866025 -0.5 0
    outer loop
      vertex -3.23607 2.35114 3
      vertex -3.23607 2.35114 23
      vertex -3.65418 1.62695 23
    endloop
  endfacet
  facet normal 0.866025 -0.5 0
    outer loop
      vertex -3.65418 1.62695 3
      vertex -3.23607 2.35114 3
      vertex -3.65418 1.62695 23
    endloop
  endfacet
  facet normal 0.951057 -0.309016 0
    outer loop
      vertex -3.65418 1.62695 3
      vertex -3.65418 1.62695 23
      vertex -3.91259 0.831647 23
    endloop
  endfacet
  facet normal 0.951057 -0.309016 0
    outer loop
      vertex -3.91259 0.831647 3
      vertex -3.65418 1.62695 3
      vertex -3.91259 0.831647 23
    endloop
  endfacet
  facet normal 0.994522 -0.104529 0
    outer loop
      vertex -3.91259 0.831647 3
      vertex -3.91259 0.831647 23
      vertex -4 0 23
    endloop
  endfacet
  facet normal 0.994522 -0.104529 0
    outer loop
      vertex -4 0 3
      vertex -3.91259 0.831647 3
      vertex -4 0 23
    endloop
  endfacet
endsolid OpenSCAD_Model
