solid OpenSCAD_Model
  facet normal 0 1 0
    outer loop
      vertex -3 0 5
      vertex -3 0 0
      vertex -10 0 5
    endloop
  endfacet
  facet normal 0 1 0
    outer loop
      vertex -10 0 5
      vertex -3 0 0
      vertex -10 0 0
    endloop
  endfacet
  facet normal -0.771454 -0.636285 0
    outer loop
      vertex -10 0 0
      vertex -5 -6.06218 0
      vertex -10 0 5
    endloop
  endfacet
  facet normal -0.771454 -0.636285 0
    outer loop
      vertex -10 0 5
      vertex -5 -6.06218 0
      vertex -5 -6.06218 5
    endloop
  endfacet
  facet normal 0 0 -1
    outer loop
      vertex -10 0 0
      vertex -3 0 0
      vertex -5 -6.06218 0
    endloop
  endfacet
  facet normal 0 0 -1
    outer loop
      vertex -2.47082 3.44127 0
      vertex -3 0 0
      vertex -2.80534 3.27082 0
    endloop
  endfacet
  facet normal 0 0 -1
    outer loop
      vertex -3.3 2.3 0
      vertex -3 1.52384 0
      vertex -3.24127 1.92918 0
    endloop
  endfacet
  facet normal 0 0 -1
    outer loop
      vertex -3 1.52384 0
      vertex -3.07082 1.59466 0
      vertex -3.24127 1.92918 0
    endloop
  endfacet
  facet normal 0 0 -1
    outer loop
      vertex -3.24127 2.67082 0
      vertex -3 1.52384 0
      vertex -3.3 2.3 0
    endloop
  endfacet
  facet normal 0 0 -1
    outer loop
      vertex -3.07082 3.00534 0
      vertex -3 1.52384 0
      vertex -3.24127 2.67082 0
    endloop
  endfacet
  facet normal 0 0 -1
    outer loop
      vertex -2.80534 3.27082 0
      vertex -3 1.52384 0
      vertex -3.07082 3.00534 0
    endloop
  endfacet
  facet normal 0 0 -1
    outer loop
      vertex -3 0 0
      vertex -3 1.52384 0
      vertex -2.80534 3.27082 0
    endloop
  endfacet
  facet normal 0 0 -1
    outer loop
      vertex -2.1 3.5 0
      vertex -3 0 0
      vertex -2.47082 3.44127 0
    endloop
  endfacet
  facet normal 0 0 -1
    outer loop
      vertex -1.72918 3.44127 0
      vertex -3 0 0
      vertex -2.1 3.5 0
    endloop
  endfacet
  facet normal 0 0 -1
    outer loop
      vertex -5 -6.06218 0
      vertex -3 0 0
      vertex -1.72918 3.44127 0
    endloop
  endfacet
  facet normal 0 0 -1
    outer loop
      vertex -1.61803 3.17557 0
      vertex -1.72918 3.44127 0
      vertex -1.47954 3.31407 0
    endloop
  endfacet
  facet normal 0 0 -1
    outer loop
      vertex -1.90211 2.61803 0
      vertex -1.72918 3.44127 0
      vertex -1.61803 3.17557 0
    endloop
  endfacet
  facet normal 0 0 -1
    outer loop
      vertex -5 -6.06218 0
      vertex -1.72918 3.44127 0
      vertex -1.90211 2.61803 0
    endloop
  endfacet
  facet normal 0 0 -1
    outer loop
      vertex -1.90211 1.38197 0
      vertex -5 -6.06218 0
      vertex -2 2 0
    endloop
  endfacet
  facet normal 0 0 -1
    outer loop
      vertex -5 -6.06218 0
      vertex -1.90211 1.38197 0
      vertex -1.61803 0.824429 0
    endloop
  endfacet
  facet normal 0 0 -1
    outer loop
      vertex -1.61803 0.824429 0
      vertex -1.17557 0.381966 0
      vertex -5 -6.06218 0
    endloop
  endfacet
  facet normal 0 0 -1
    outer loop
      vertex -1.17557 0.381966 0
      vertex -0.618034 0.097887 0
      vertex -5 -6.06218 0
    endloop
  endfacet
  facet normal 0 0 -1
    outer loop
      vertex -0.618034 0.097887 0
      vertex 0 0 0
      vertex -5 -6.06218 0
    endloop
  endfacet
  facet normal 0 0 -1
    outer loop
      vertex 0 0 0
      vertex 0.618034 0.097887 0
      vertex -5 -6.06218 0
    endloop
  endfacet
  facet normal 0 0 -1
    outer loop
      vertex 0.618034 0.097887 0
      vertex 1.17557 0.381966 0
      vertex -5 -6.06218 0
    endloop
  endfacet
  facet normal 0 0 -1
    outer loop
      vertex 1.17557 0.381966 0
      vertex 1.61803 0.824429 0
      vertex -5 -6.06218 0
    endloop
  endfacet
  facet normal 0 0 -1
    outer loop
      vertex 1.61803 3.17557 0
      vertex 1.47954 3.31407 0
      vertex 1.72918 3.44127 0
    endloop
  endfacet
  facet normal 0 0 -1
    outer loop
      vertex 1.61803 3.17557 0
      vertex 1.72918 3.44127 0
      vertex 1.90211 2.61803 0
    endloop
  endfacet
  facet normal 0 0 -1
    outer loop
      vertex 1.90211 2.61803 0
      vertex 1.72918 3.44127 0
      vertex 2.1 3.5 0
    endloop
  endfacet
  facet normal 0 0 -1
    outer loop
      vertex 1.90211 2.61803 0
      vertex 2.1 3.5 0
      vertex 2 2 0
    endloop
  endfacet
  facet normal 0 0 -1
    outer loop
      vertex 2 2 0
      vertex 2.1 3.5 0
      vertex 2.47082 3.44127 0
    endloop
  endfacet
  facet normal 0 0 -1
    outer loop
      vertex 2 2 0
      vertex 2.47082 3.44127 0
      vertex 1.90211 1.38197 0
    endloop
  endfacet
  facet normal 0 0 -1
    outer loop
      vertex 1.90211 1.38197 0
      vertex 2.47082 3.44127 0
      vertex 2.80534 3.27082 0
    endloop
  endfacet
  facet normal 0 0 -1
    outer loop
      vertex 1.90211 1.38197 0
      vertex 2.80534 3.27082 0
      vertex 3.07082 3.00534 0
    endloop
  endfacet
  facet normal 0 0 -1
    outer loop
      vertex 1.90211 1.38197 0
      vertex 3.07082 3.00534 0
      vertex 1.61803 0.824429 0
    endloop
  endfacet
  facet normal 0 0 -1
    outer loop
      vertex 1.61803 0.824429 0
      vertex 3.07082 3.00534 0
      vertex 3.24127 2.67082 0
    endloop
  endfacet
  facet normal 0 0 -1
    outer loop
      vertex 1.61803 0.824429 0
      vertex 3.24127 2.67082 0
      vertex 3.3 2.3 0
    endloop
  endfacet
  facet normal 0 0 -1
    outer loop
      vertex 1.61803 0.824429 0
      vertex 3.3 2.3 0
      vertex -5 -6.06218 0
    endloop
  endfacet
  facet normal 0 0 -1
    outer loop
      vertex -5 -6.06218 0
      vertex 3.3 2.3 0
      vertex 3.24127 1.92918 0
    endloop
  endfacet
  facet normal 0 0 -1
    outer loop
      vertex -5 -6.06218 0
      vertex 3.24127 1.92918 0
      vertex 3.07082 1.59466 0
    endloop
  endfacet
  facet normal 0 0 -1
    outer loop
      vertex -5 -6.06218 0
      vertex 3.07082 1.59466 0
      vertex 3 1.52384 0
    endloop
  endfacet
  facet normal 0 0 -1
    outer loop
      vertex -5 -6.06218 0
      vertex 3 1.52384 0
      vertex 3 0 0
    endloop
  endfacet
  facet normal 0 0 -1
    outer loop
      vertex 3 0 0
      vertex 10 0 0
      vertex -5 -6.06218 0
    endloop
  endfacet
  facet normal 0 0 -1
    outer loop
      vertex -5 -6.06218 0
      vertex 10 0 0
      vertex 5 -6.06218 0
    endloop
  endfacet
  facet normal 0 0 -1
    outer loop
      vertex -2 2 0
      vertex -5 -6.06218 0
      vertex -1.90211 2.61803 0
    endloop
  endfacet
  facet normal 0 0 1
    outer loop
      vertex -3 0 5
      vertex -10 0 5
      vertex -5 -6.06218 5
    endloop
  endfacet
  facet normal 0 0 1
    outer loop
      vertex 3 0 5
      vertex 0 0 5
      vertex 5 -6.06218 5
    endloop
  endfacet
  facet normal 0 0 1
    outer loop
      vertex 5 -6.06218 5
      vertex -3 0 5
      vertex -5 -6.06218 5
    endloop
  endfacet
  facet normal 0 0 1
    outer loop
      vertex -0.618034 0.097887 5
      vertex -1.17557 0.381966 5
      vertex -3 0 5
    endloop
  endfacet
  facet normal 0 0 1
    outer loop
      vertex 0 0 5
      vertex -3 0 5
      vertex 5 -6.06218 5
    endloop
  endfacet
  facet normal 0 0 1
    outer loop
      vertex 10 0 5
      vertex 3 0 5
      vertex 5 -6.06218 5
    endloop
  endfacet
  facet normal 0 0 1
    outer loop
      vertex 1.61803 3.17557 5
      vertex 3.07082 3.00534 5
      vertex 2.80534 3.27082 5
    endloop
  endfacet
  facet normal 0 0 1
    outer loop
      vertex -1.90211 1.38197 5
      vertex -2 2 5
      vertex -3.07082 1.59466 5
    endloop
  endfacet
  facet normal 0 0 1
    outer loop
      vertex -3.24127 2.67082 5
      vertex -3.3 2.3 5
      vertex -1.61803 3.17557 5
    endloop
  endfacet
  facet normal 0 0 1
    outer loop
      vertex 2.47082 3.44127 5
      vertex 2.1 3.5 5
      vertex 1.47954 3.31407 5
    endloop
  endfacet
  facet normal 0 0 1
    outer loop
      vertex -2 2 5
      vertex -1.90211 2.61803 5
      vertex -3.24127 1.92918 5
    endloop
  endfacet
  facet normal 0 0 1
    outer loop
      vertex 2.80534 3.27082 5
      vertex 2.47082 3.44127 5
      vertex 1.61803 3.17557 5
    endloop
  endfacet
  facet normal 0 0 1
    outer loop
      vertex 3.24127 2.67082 5
      vertex 3.07082 3.00534 5
      vertex 1.90211 2.61803 5
    endloop
  endfacet
  facet normal 0 0 1
    outer loop
      vertex 1.61803 3.17557 5
      vertex 1.90211 2.61803 5
      vertex 3.07082 3.00534 5
    endloop
  endfacet
  facet normal 0 0 1
    outer loop
      vertex 3.24127 1.92918 5
      vertex 3.3 2.3 5
      vertex 2 2 5
    endloop
  endfacet
  facet normal 0 0 1
    outer loop
      vertex 1.47954 3.31407 5
      vertex 1.61803 3.17557 5
      vertex 2.47082 3.44127 5
    endloop
  endfacet
  facet normal 0 0 1
    outer loop
      vertex 3 1.52384 5
      vertex 1.61803 0.824429 5
      vertex 3 0 5
    endloop
  endfacet
  facet normal 0 0 1
    outer loop
      vertex 1.61803 0.824429 5
      vertex 1.17557 0.381966 5
      vertex 3 0 5
    endloop
  endfacet
  facet normal 0 0 1
    outer loop
      vertex -1.17557 0.381966 5
      vertex -1.61803 0.824429 5
      vertex -3 0 5
    endloop
  endfacet
  facet normal 0 0 1
    outer loop
      vertex 1.17557 0.381966 5
      vertex 0.618034 0.097887 5
      vertex 3 0 5
    endloop
  endfacet
  facet normal 0 0 1
    outer loop
      vertex 0.618034 0.097887 5
      vertex 0 0 5
      vertex 3 0 5
    endloop
  endfacet
  facet normal 0 0 1
    outer loop
      vertex 0 0 5
      vertex -0.618034 0.097887 5
      vertex -3 0 5
    endloop
  endfacet
  facet normal 0 0 1
    outer loop
      vertex 1.72918 3.44127 5
      vertex 1.47954 3.31407 5
      vertex 2.1 3.5 5
    endloop
  endfacet
  facet normal 0 0 1
    outer loop
      vertex -2.80534 3.27082 5
      vertex -3.07082 3.00534 5
      vertex -2.1 3.5 5
    endloop
  endfacet
  facet normal 0 0 1
    outer loop
      vertex 1.90211 2.61803 5
      vertex 2 2 5
      vertex 3.3 2.3 5
    endloop
  endfacet
  facet normal 0 0 1
    outer loop
      vertex -3.3 2.3 5
      vertex -3.24127 1.92918 5
      vertex -1.90211 2.61803 5
    endloop
  endfacet
  facet normal 0 0 1
    outer loop
      vertex -3.07082 3.00534 5
      vertex -3.24127 2.67082 5
      vertex -1.72918 3.44127 5
    endloop
  endfacet
  facet normal 0 0 1
    outer loop
      vertex -2.1 3.5 5
      vertex -2.47082 3.44127 5
      vertex -2.80534 3.27082 5
    endloop
  endfacet
  facet normal 0 0 1
    outer loop
      vertex -3.24127 2.67082 5
      vertex -1.61803 3.17557 5
      vertex -1.47954 3.31407 5
    endloop
  endfacet
  facet normal 0 0 1
    outer loop
      vertex -1.72918 3.44127 5
      vertex -2.1 3.5 5
      vertex -3.07082 3.00534 5
    endloop
  endfacet
  facet normal 0 0 1
    outer loop
      vertex -1.47954 3.31407 5
      vertex -1.72918 3.44127 5
      vertex -3.24127 2.67082 5
    endloop
  endfacet
  facet normal 0 0 1
    outer loop
      vertex -3.24127 1.92918 5
      vertex -3.07082 1.59466 5
      vertex -2 2 5
    endloop
  endfacet
  facet normal 0 0 1
    outer loop
      vertex -1.90211 2.61803 5
      vertex -1.61803 3.17557 5
      vertex -3.3 2.3 5
    endloop
  endfacet
  facet normal 0 0 1
    outer loop
      vertex 1.90211 2.61803 5
      vertex 3.3 2.3 5
      vertex 3.24127 2.67082 5
    endloop
  endfacet
  facet normal 0 0 1
    outer loop
      vertex 2 2 5
      vertex 1.90211 1.38197 5
      vertex 3 1.52384 5
    endloop
  endfacet
  facet normal 0 0 1
    outer loop
      vertex 2 2 5
      vertex 3 1.52384 5
      vertex 3.07082 1.59466 5
    endloop
  endfacet
  facet normal 0 0 1
    outer loop
      vertex 2 2 5
      vertex 3.07082 1.59466 5
      vertex 3.24127 1.92918 5
    endloop
  endfacet
  facet normal 0 0 1
    outer loop
      vertex -1.90211 1.38197 5
      vertex -3.07082 1.59466 5
      vertex -3 1.52384 5
    endloop
  endfacet
  facet normal 0 0 1
    outer loop
      vertex 1.90211 1.38197 5
      vertex 1.61803 0.824429 5
      vertex 3 1.52384 5
    endloop
  endfacet
  facet normal 0 0 1
    outer loop
      vertex -3 1.52384 5
      vertex -1.61803 0.824429 5
      vertex -1.90211 1.38197 5
    endloop
  endfacet
  facet normal 0 0 1
    outer loop
      vertex -3 1.52384 5
      vertex -3 0 5
      vertex -1.61803 0.824429 5
    endloop
  endfacet
  facet normal -1 0 0
    outer loop
      vertex -3 0 0
      vertex -3 0 5
      vertex -3 1.52384 0
    endloop
  endfacet
  facet normal -1 0 0
    outer loop
      vertex -3 1.52384 0
      vertex -3 0 5
      vertex -3 1.52384 5
    endloop
  endfacet
  facet normal 0 -1 0
    outer loop
      vertex -5 -6.06218 5
      vertex -5 -6.06218 0
      vertex 5 -6.06218 0
    endloop
  endfacet
  facet normal 0 -1 0
    outer loop
      vertex 5 -6.06218 5
      vertex -5 -6.06218 5
      vertex 5 -6.06218 0
    endloop
  endfacet
  facet normal 0.771454 -0.636285 0
    outer loop
      vertex 5 -6.06218 5
      vertex 5 -6.06218 0
      vertex 10 0 0
    endloop
  endfacet
  facet normal 0.771454 -0.636285 0
    outer loop
      vertex 10 0 5
      vertex 5 -6.06218 5
      vertex 10 0 0
    endloop
  endfacet
  facet normal 0 1 0
    outer loop
      vertex 10 0 5
      vertex 10 0 0
      vertex 3 0 5
    endloop
  endfacet
  facet normal 0 1 0
    outer loop
      vertex 3 0 5
      vertex 10 0 0
      vertex 3 0 0
    endloop
  endfacet
  facet normal 1 0 0
    outer loop
      vertex 3 0 5
      vertex 3 0 0
      vertex 3 1.52384 0
    endloop
  endfacet
  facet normal 1 0 0
    outer loop
      vertex 3 1.52384 5
      vertex 3 0 5
      vertex 3 1.52384 0
    endloop
  endfacet
  facet normal 0.707107 -0.707107 0
    outer loop
      vertex 3 1.52384 5
      vertex 3 1.52384 0
      vertex 3.07082 1.59466 0
    endloop
  endfacet
  facet normal 0.707107 -0.707107 0
    outer loop
      vertex 3.07082 1.59466 5
      vertex 3 1.52384 5
      vertex 3.07082 1.59466 0
    endloop
  endfacet
  facet normal 0.891006 -0.453992 0
    outer loop
      vertex 3.07082 1.59466 5
      vertex 3.07082 1.59466 0
      vertex 3.24127 1.92918 0
    endloop
  endfacet
  facet normal 0.891006 -0.453992 0
    outer loop
      vertex 3.24127 1.92918 5
      vertex 3.07082 1.59466 5
      vertex 3.24127 1.92918 0
    endloop
  endfacet
  facet normal 0.987688 -0.156434 0
    outer loop
      vertex 3.24127 1.92918 5
      vertex 3.24127 1.92918 0
      vertex 3.3 2.3 0
    endloop
  endfacet
  facet normal 0.987688 -0.156434 0
    outer loop
      vertex 3.3 2.3 5
      vertex 3.24127 1.92918 5
      vertex 3.3 2.3 0
    endloop
  endfacet
  facet normal 0.987688 0.156434 0
    outer loop
      vertex 3.3 2.3 0
      vertex 3.24127 2.67082 0
      vertex 3.24127 2.67082 5
    endloop
  endfacet
  facet normal 0.987688 0.156434 0
    outer loop
      vertex 3.3 2.3 5
      vertex 3.3 2.3 0
      vertex 3.24127 2.67082 5
    endloop
  endfacet
  facet normal 0.891006 0.453992 0
    outer loop
      vertex 3.24127 2.67082 0
      vertex 3.07082 3.00534 0
      vertex 3.07082 3.00534 5
    endloop
  endfacet
  facet normal 0.891006 0.453992 0
    outer loop
      vertex 3.24127 2.67082 5
      vertex 3.24127 2.67082 0
      vertex 3.07082 3.00534 5
    endloop
  endfacet
  facet normal 0.707107 0.707107 0
    outer loop
      vertex 2.80534 3.27082 0
      vertex 2.80534 3.27082 5
      vertex 3.07082 3.00534 0
    endloop
  endfacet
  facet normal 0.707107 0.707107 0
    outer loop
      vertex 3.07082 3.00534 0
      vertex 2.80534 3.27082 5
      vertex 3.07082 3.00534 5
    endloop
  endfacet
  facet normal 0.453992 0.891006 0
    outer loop
      vertex 2.47082 3.44127 0
      vertex 2.47082 3.44127 5
      vertex 2.80534 3.27082 0
    endloop
  endfacet
  facet normal 0.453992 0.891006 0
    outer loop
      vertex 2.80534 3.27082 0
      vertex 2.47082 3.44127 5
      vertex 2.80534 3.27082 5
    endloop
  endfacet
  facet normal 0.156434 0.987688 0
    outer loop
      vertex 2.1 3.5 0
      vertex 2.1 3.5 5
      vertex 2.47082 3.44127 0
    endloop
  endfacet
  facet normal 0.156434 0.987688 0
    outer loop
      vertex 2.47082 3.44127 0
      vertex 2.1 3.5 5
      vertex 2.47082 3.44127 5
    endloop
  endfacet
  facet normal -0.156434 0.987688 0
    outer loop
      vertex 1.72918 3.44127 0
      vertex 1.72918 3.44127 5
      vertex 2.1 3.5 0
    endloop
  endfacet
  facet normal -0.156434 0.987688 0
    outer loop
      vertex 2.1 3.5 0
      vertex 1.72918 3.44127 5
      vertex 2.1 3.5 5
    endloop
  endfacet
  facet normal -0.453992 0.891006 0
    outer loop
      vertex 1.47954 3.31407 0
      vertex 1.47954 3.31407 5
      vertex 1.72918 3.44127 0
    endloop
  endfacet
  facet normal -0.453992 0.891006 0
    outer loop
      vertex 1.72918 3.44127 0
      vertex 1.47954 3.31407 5
      vertex 1.72918 3.44127 5
    endloop
  endfacet
  facet normal -0.707107 -0.707107 0
    outer loop
      vertex 1.61803 3.17557 0
      vertex 1.61803 3.17557 5
      vertex 1.47954 3.31407 5
    endloop
  endfacet
  facet normal -0.707107 -0.707107 0
    outer loop
      vertex 1.47954 3.31407 0
      vertex 1.61803 3.17557 0
      vertex 1.47954 3.31407 5
    endloop
  endfacet
  facet normal -0.891007 -0.45399 0
    outer loop
      vertex 1.90211 2.61803 5
      vertex 1.61803 3.17557 5
      vertex 1.90211 2.61803 0
    endloop
  endfacet
  facet normal -0.891007 -0.45399 0
    outer loop
      vertex 1.90211 2.61803 0
      vertex 1.61803 3.17557 5
      vertex 1.61803 3.17557 0
    endloop
  endfacet
  facet normal -0.987688 -0.156435 0
    outer loop
      vertex 2 2 5
      vertex 1.90211 2.61803 5
      vertex 2 2 0
    endloop
  endfacet
  facet normal -0.987688 -0.156435 0
    outer loop
      vertex 2 2 0
      vertex 1.90211 2.61803 5
      vertex 1.90211 2.61803 0
    endloop
  endfacet
  facet normal -0.987688 0.156435 0
    outer loop
      vertex 2 2 5
      vertex 2 2 0
      vertex 1.90211 1.38197 5
    endloop
  endfacet
  facet normal -0.987688 0.156435 0
    outer loop
      vertex 1.90211 1.38197 5
      vertex 2 2 0
      vertex 1.90211 1.38197 0
    endloop
  endfacet
  facet normal -0.891007 0.45399 0
    outer loop
      vertex 1.90211 1.38197 5
      vertex 1.90211 1.38197 0
      vertex 1.61803 0.824429 5
    endloop
  endfacet
  facet normal -0.891007 0.45399 0
    outer loop
      vertex 1.61803 0.824429 5
      vertex 1.90211 1.38197 0
      vertex 1.61803 0.824429 0
    endloop
  endfacet
  facet normal -0.707107 0.707107 0
    outer loop
      vertex 1.61803 0.824429 5
      vertex 1.61803 0.824429 0
      vertex 1.17557 0.381966 5
    endloop
  endfacet
  facet normal -0.707107 0.707107 0
    outer loop
      vertex 1.17557 0.381966 5
      vertex 1.61803 0.824429 0
      vertex 1.17557 0.381966 0
    endloop
  endfacet
  facet normal -0.45399 0.891007 0
    outer loop
      vertex 1.17557 0.381966 5
      vertex 1.17557 0.381966 0
      vertex 0.618034 0.097887 5
    endloop
  endfacet
  facet normal -0.45399 0.891007 0
    outer loop
      vertex 0.618034 0.097887 5
      vertex 1.17557 0.381966 0
      vertex 0.618034 0.097887 0
    endloop
  endfacet
  facet normal -0.156435 0.987688 0
    outer loop
      vertex 0.618034 0.097887 5
      vertex 0.618034 0.097887 0
      vertex 0 0 5
    endloop
  endfacet
  facet normal -0.156435 0.987688 0
    outer loop
      vertex 0 0 5
      vertex 0.618034 0.097887 0
      vertex 0 0 0
    endloop
  endfacet
  facet normal 0.156435 0.987688 0
    outer loop
      vertex 0 0 5
      vertex 0 0 0
      vertex -0.618034 0.097887 5
    endloop
  endfacet
  facet normal 0.156435 0.987688 0
    outer loop
      vertex -0.618034 0.097887 5
      vertex 0 0 0
      vertex -0.618034 0.097887 0
    endloop
  endfacet
  facet normal 0.45399 0.891007 0
    outer loop
      vertex -0.618034 0.097887 5
      vertex -0.618034 0.097887 0
      vertex -1.17557 0.381966 5
    endloop
  endfacet
  facet normal 0.45399 0.891007 0
    outer loop
      vertex -1.17557 0.381966 5
      vertex -0.618034 0.097887 0
      vertex -1.17557 0.381966 0
    endloop
  endfacet
  facet normal 0.707107 0.707107 0
    outer loop
      vertex -1.17557 0.381966 5
      vertex -1.17557 0.381966 0
      vertex -1.61803 0.824429 5
    endloop
  endfacet
  facet normal 0.707107 0.707107 0
    outer loop
      vertex -1.61803 0.824429 5
      vertex -1.17557 0.381966 0
      vertex -1.61803 0.824429 0
    endloop
  endfacet
  facet normal 0.891007 0.45399 0
    outer loop
      vertex -1.90211 1.38197 5
      vertex -1.61803 0.824429 5
      vertex -1.61803 0.824429 0
    endloop
  endfacet
  facet normal 0.891007 0.45399 0
    outer loop
      vertex -1.90211 1.38197 0
      vertex -1.90211 1.38197 5
      vertex -1.61803 0.824429 0
    endloop
  endfacet
  facet normal 0.987688 0.156435 0
    outer loop
      vertex -2 2 5
      vertex -1.90211 1.38197 5
      vertex -1.90211 1.38197 0
    endloop
  endfacet
  facet normal 0.987688 0.156435 0
    outer loop
      vertex -2 2 0
      vertex -2 2 5
      vertex -1.90211 1.38197 0
    endloop
  endfacet
  facet normal 0.987688 -0.156435 0
    outer loop
      vertex -1.90211 2.61803 0
      vertex -1.90211 2.61803 5
      vertex -2 2 5
    endloop
  endfacet
  facet normal 0.987688 -0.156435 0
    outer loop
      vertex -2 2 0
      vertex -1.90211 2.61803 0
      vertex -2 2 5
    endloop
  endfacet
  facet normal 0.891007 -0.45399 0
    outer loop
      vertex -1.61803 3.17557 0
      vertex -1.61803 3.17557 5
      vertex -1.90211 2.61803 5
    endloop
  endfacet
  facet normal 0.891007 -0.45399 0
    outer loop
      vertex -1.90211 2.61803 0
      vertex -1.61803 3.17557 0
      vertex -1.90211 2.61803 5
    endloop
  endfacet
  facet normal 0.707107 -0.707107 0
    outer loop
      vertex -1.47954 3.31407 0
      vertex -1.47954 3.31407 5
      vertex -1.61803 3.17557 5
    endloop
  endfacet
  facet normal 0.707107 -0.707107 0
    outer loop
      vertex -1.61803 3.17557 0
      vertex -1.47954 3.31407 0
      vertex -1.61803 3.17557 5
    endloop
  endfacet
  facet normal 0.453992 0.891006 0
    outer loop
      vertex -1.72918 3.44127 0
      vertex -1.72918 3.44127 5
      vertex -1.47954 3.31407 0
    endloop
  endfacet
  facet normal 0.453992 0.891006 0
    outer loop
      vertex -1.47954 3.31407 0
      vertex -1.72918 3.44127 5
      vertex -1.47954 3.31407 5
    endloop
  endfacet
  facet normal 0.156434 0.987688 0
    outer loop
      vertex -2.1 3.5 0
      vertex -2.1 3.5 5
      vertex -1.72918 3.44127 0
    endloop
  endfacet
  facet normal 0.156434 0.987688 0
    outer loop
      vertex -1.72918 3.44127 0
      vertex -2.1 3.5 5
      vertex -1.72918 3.44127 5
    endloop
  endfacet
  facet normal -0.156434 0.987688 0
    outer loop
      vertex -2.47082 3.44127 0
      vertex -2.47082 3.44127 5
      vertex -2.1 3.5 0
    endloop
  endfacet
  facet normal -0.156434 0.987688 0
    outer loop
      vertex -2.1 3.5 0
      vertex -2.47082 3.44127 5
      vertex -2.1 3.5 5
    endloop
  endfacet
  facet normal -0.453992 0.891006 0
    outer loop
      vertex -2.80534 3.27082 0
      vertex -2.80534 3.27082 5
      vertex -2.47082 3.44127 0
    endloop
  endfacet
  facet normal -0.453992 0.891006 0
    outer loop
      vertex -2.47082 3.44127 0
      vertex -2.80534 3.27082 5
      vertex -2.47082 3.44127 5
    endloop
  endfacet
  facet normal -0.707107 0.707107 0
    outer loop
      vertex -3.07082 3.00534 0
      vertex -3.07082 3.00534 5
      vertex -2.80534 3.27082 0
    endloop
  endfacet
  facet normal -0.707107 0.707107 0
    outer loop
      vertex -2.80534 3.27082 0
      vertex -3.07082 3.00534 5
      vertex -2.80534 3.27082 5
    endloop
  endfacet
  facet normal -0.891006 0.453992 0
    outer loop
      vertex -3.24127 2.67082 0
      vertex -3.24127 2.67082 5
      vertex -3.07082 3.00534 0
    endloop
  endfacet
  facet normal -0.891006 0.453992 0
    outer loop
      vertex -3.07082 3.00534 0
      vertex -3.24127 2.67082 5
      vertex -3.07082 3.00534 5
    endloop
  endfacet
  facet normal -0.987688 0.156434 0
    outer loop
      vertex -3.3 2.3 0
      vertex -3.3 2.3 5
      vertex -3.24127 2.67082 0
    endloop
  endfacet
  facet normal -0.987688 0.156434 0
    outer loop
      vertex -3.24127 2.67082 0
      vertex -3.3 2.3 5
      vertex -3.24127 2.67082 5
    endloop
  endfacet
  facet normal -0.987688 -0.156434 0
    outer loop
      vertex -3.3 2.3 0
      vertex -3.24127 1.92918 0
      vertex -3.3 2.3 5
    endloop
  endfacet
  facet normal -0.987688 -0.156434 0
    outer loop
      vertex -3.3 2.3 5
      vertex -3.24127 1.92918 0
      vertex -3.24127 1.92918 5
    endloop
  endfacet
  facet normal -0.891006 -0.453992 0
    outer loop
      vertex -3.24127 1.92918 0
      vertex -3.07082 1.59466 0
      vertex -3.24127 1.92918 5
    endloop
  endfacet
  facet normal -0.891006 -0.453992 0
    outer loop
      vertex -3.24127 1.92918 5
      vertex -3.07082 1.59466 0
      vertex -3.07082 1.59466 5
    endloop
  endfacet
  facet normal -0.707107 -0.707107 0
    outer loop
      vertex -3.07082 1.59466 5
      vertex -3.07082 1.59466 0
      vertex -3 1.52384 0
    endloop
  endfacet
  facet normal -0.707107 -0.707107 0
    outer loop
      vertex -3 1.52384 5
      vertex -3.07082 1.59466 5
      vertex -3 1.52384 0
    endloop
  endfacet
endsolid OpenSCAD_Model
